{
  "source": "C:\\Users\\Peter\\Desktop\\stuff\\MIUN\\quantitative_research\\video_compression\\videos\\BVI-HD\\BVI-HD_CDVL_videos\\ORIG\\MartialArts_1920x1080_60fps.mp4",
  "output": "C:\\Users\\Peter\\Desktop\\stuff\\MIUN\\quantitative_research\\video_compression\\compressed_videos\\BVI-HD\\hevc\\2\\MartialArts_1920x1080_60fps_hevc.mp4",
  "codec": "hevc",
  "ok": "Input #0, mov,mp4,m4a,3gp,3g2,mj2, from 'C:\\Users\\Peter\\Desktop\\stuff\\MIUN\\quantitative_research\\video_compression\\videos\\BVI-HD\\BVI-HD_CDVL_videos\\ORIG\\MartialArts_1920x1080_60fps.mp4':\n  Metadata:\n    major_brand     : isom\n    minor_version   : 512\n    compatible_brands: isomiso2avc1mp41\n    encoder         : Lavf54.28.101\n  Duration: 00:00:05.00, start: 0.000000, bitrate: 120609 kb/s\n  Stream #0:0[0x1](und): Video: h264 (High 4:4:4 Predictive) (avc1 / 0x31637661), yuv420p(progressive), 1920x1080, 120605 kb/s, 60 fps, 60 tbr, 60 tbn (default)\n    Metadata:\n      handler_name    : VideoHandler\n      vendor_id       : [0][0][0][0]\n[out#0/mp4 @ 0000027d3d3eabc0] Codec AVOption b:a (set bitrate (in bits/s)) has not been used for any stream. The most likely reason is either wrong type (e.g. a video option with no video streams) or that it is a private option of some decoder which was not actually used for any stream.\nStream mapping:\n  Stream #0:0 -> #0:0 (h264 (native) -> hevc (libx265))\nPress [q] to stop, [?] for help\n[libx265 @ 0000027d3dac0940] Unknown option: \"aq-mode.\nx265 [info]: HEVC encoder version 4.1+190-8f11c33ac\nx265 [info]: build info [Windows][GCC 15.1.0][64 bit] 10bit\nx265 [info]: using cpu capabilities: MMX2 SSE2Fast LZCNT SSSE3 SSE4.2 AVX FMA3 BMI2 AVX2\nx265 [info]: Main 10 profile, Level-4.1 (Main tier)\nx265 [info]: Thread pool created using 12 threads\nx265 [info]: Slices                              : 1\nx265 [info]: frame threads / pool features       : 3 / wpp(17 rows)\nx265 [info]: Coding QT: max CU size, min CU size : 64 / 8\nx265 [info]: Residual QT: max TU size, max depth : 32 / 1 inter / 1 intra\nx265 [info]: ME / range / subpel / merge         : star / 57 / 3 / 3\nx265 [info]: Keyframe min / max / scenecut / bias  : 25 / 250 / 40 / 5.00 \nx265 [info]: Lookahead / bframes / badapt        : 25 / 4 / 2\nx265 [info]: b-pyramid / weightp / weightb       : 1 / 1 / 0\nx265 [info]: References / ref-limit  cu / depth  : 4 / on / on\nx265 [info]: AQ: mode / str / qg-size / cu-tree  : 2 / 1.0 / 32 / 1\nx265 [info]: Rate Control / qCompress            : ABR-2000 kbps / 0.60\nx265 [info]: VBV/HRD buffer / max-rate / init    : 2000 / 2000 / 0.750\nx265 [info]: tools: rect limit-modes rd=4 psy-rd=2.00 rdoq=2 psy-rdoq=1.00\nx265 [info]: tools: rskip mode=1 signhide tmvp strong-intra-smoothing lslices=4\nx265 [info]: tools: deblock sao dhdr10-info\nOutput #0, mp4, to 'C:\\Users\\Peter\\Desktop\\stuff\\MIUN\\quantitative_research\\video_compression\\compressed_videos\\BVI-HD\\hevc\\2\\MartialArts_1920x1080_60fps_hevc.mp4':\n  Metadata:\n    major_brand     : isom\n    minor_version   : 512\n    compatible_brands: isomiso2avc1mp41\n    encoder         : Lavf62.3.100\n  Stream #0:0(und): Video: hevc (hev1 / 0x31766568), yuv420p10le(tv, progressive), 1920x1080, q=2-31, 2000 kb/s, 60 fps, 15360 tbn (default)\n    Metadata:\n      encoder         : Lavc62.11.100 libx265\n      handler_name    : VideoHandler\n      vendor_id       : [0][0][0][0]\n    Side data:\n      cpb: bitrate max/min/avg: 2000000/0/2000000 buffer size: 2000000 vbv_delay: N/A\nframe=    0 fps=0.0 q=0.0 size=       0KiB time=N/A bitrate=N/A speed=N/A elapsed=0:00:00.50    \nframe=    0 fps=0.0 q=0.0 size=       0KiB time=N/A bitrate=N/A speed=N/A elapsed=0:00:01.03    \nframe=    0 fps=0.0 q=0.0 size=       0KiB time=N/A bitrate=N/A speed=N/A elapsed=0:00:01.54    \nframe=    0 fps=0.0 q=0.0 size=       0KiB time=N/A bitrate=N/A speed=N/A elapsed=0:00:02.07    \nframe=    0 fps=0.0 q=0.0 size=       0KiB time=N/A bitrate=N/A speed=N/A elapsed=0:00:02.58    \nframe=    0 fps=0.0 q=0.0 size=       0KiB time=N/A bitrate=N/A speed=N/A elapsed=0:00:03.10    \nframe=    0 fps=0.0 q=0.0 size=       0KiB time=N/A bitrate=N/A speed=N/A elapsed=0:00:03.62    \nframe=    1 fps=0.2 q=36.6 size=       0KiB time=-00:00:00.01 bitrate=N/A speed=N/A elapsed=0:00:04.14    \nframe=    2 fps=0.4 q=41.6 size=       0KiB time=00:00:00.00 bitrate=N/A speed=   0x elapsed=0:00:04.65    \nframe=    3 fps=0.6 q=40.4 size=       0KiB time=00:00:00.01 bitrate=  21.1kbits/s speed=0.00323x elapsed=0:00:05.16    \nframe=    4 fps=0.7 q=40.3 size=       0KiB time=00:00:00.03 bitrate=  10.6kbits/s speed=0.00585x elapsed=0:00:05.70    \nframe=    4 fps=0.6 q=40.3 size=       0KiB time=00:00:00.03 bitrate=  10.6kbits/s speed=0.00537x elapsed=0:00:06.21    \nframe=    5 fps=0.7 q=40.4 size=       0KiB time=00:00:00.05 bitrate=   7.0kbits/s speed=0.00743x elapsed=0:00:06.73    \nframe=    6 fps=0.8 q=40.7 size=       0KiB time=00:00:00.06 bitrate=   5.3kbits/s speed=0.00917x elapsed=0:00:07.26    \nframe=    7 fps=0.9 q=35.0 size=       0KiB time=00:00:00.08 bitrate=   4.2kbits/s speed=0.0107x elapsed=0:00:07.78    \nframe=    9 fps=1.1 q=37.6 size=       0KiB time=00:00:00.11 bitrate=   3.0kbits/s speed=0.0141x elapsed=0:00:08.29    \nframe=    9 fps=1.0 q=37.6 size=       0KiB time=00:00:00.11 bitrate=   3.0kbits/s speed=0.0132x elapsed=0:00:08.81    \nframe=    9 fps=1.0 q=37.6 size=       0KiB time=00:00:00.11 bitrate=   3.0kbits/s speed=0.0125x elapsed=0:00:09.33    \nframe=   10 fps=1.0 q=34.7 size=       0KiB time=00:00:00.13 bitrate=   2.6kbits/s speed=0.0135x elapsed=0:00:09.84    \nframe=   11 fps=1.1 q=34.0 size=       0KiB time=00:00:00.15 bitrate=   2.3kbits/s speed=0.0144x elapsed=0:00:10.38    \nframe=   12 fps=1.1 q=28.3 size=       0KiB time=00:00:00.16 bitrate=   2.1kbits/s speed=0.0153x elapsed=0:00:10.89    \nframe=   13 fps=1.1 q=33.6 size=       0KiB time=00:00:00.18 bitrate=   1.9kbits/s speed=0.016x elapsed=0:00:11.43    \nframe=   14 fps=1.2 q=33.2 size=       0KiB time=00:00:00.20 bitrate=   1.8kbits/s speed=0.0167x elapsed=0:00:11.95    \nframe=   15 fps=1.2 q=35.1 size=       0KiB time=00:00:00.21 bitrate=   1.6kbits/s speed=0.0174x elapsed=0:00:12.45    \nframe=   16 fps=1.2 q=35.3 size=       0KiB time=00:00:00.23 bitrate=   1.5kbits/s speed=0.018x elapsed=0:00:12.97    \nframe=   17 fps=1.3 q=28.4 size=       0KiB time=00:00:00.25 bitrate=   1.4kbits/s speed=0.0185x elapsed=0:00:13.48    \nframe=   18 fps=1.3 q=35.3 size=       0KiB time=00:00:00.26 bitrate=   1.3kbits/s speed=0.019x elapsed=0:00:14.01    \nframe=   19 fps=1.3 q=35.6 size=       0KiB time=00:00:00.28 bitrate=   1.2kbits/s speed=0.0195x elapsed=0:00:14.53    \nframe=   19 fps=1.3 q=35.6 size=       0KiB time=00:00:00.28 bitrate=   1.2kbits/s speed=0.0188x elapsed=0:00:15.05    \nframe=   19 fps=1.2 q=35.6 size=       0KiB time=00:00:00.28 bitrate=   1.2kbits/s speed=0.0182x elapsed=0:00:15.59    \nframe=   20 fps=1.2 q=33.1 size=       0KiB time=00:00:00.30 bitrate=   1.2kbits/s speed=0.0186x elapsed=0:00:16.10    \nframe=   21 fps=1.3 q=32.7 size=       0KiB time=00:00:00.31 bitrate=   1.1kbits/s speed=0.0191x elapsed=0:00:16.62    \nframe=   21 fps=1.2 q=32.7 size=       0KiB time=00:00:00.31 bitrate=   1.1kbits/s speed=0.0185x elapsed=0:00:17.13    \nframe=   22 fps=1.2 q=27.4 size=       0KiB time=00:00:00.33 bitrate=   1.1kbits/s speed=0.0189x elapsed=0:00:17.65    \nframe=   23 fps=1.3 q=32.9 size=       0KiB time=00:00:00.35 bitrate=   1.0kbits/s speed=0.0192x elapsed=0:00:18.18    \nframe=   24 fps=1.3 q=32.8 size=       0KiB time=00:00:00.36 bitrate=   1.0kbits/s speed=0.0196x elapsed=0:00:18.70    \nframe=   24 fps=1.2 q=32.8 size=       0KiB time=00:00:00.36 bitrate=   1.0kbits/s speed=0.0191x elapsed=0:00:19.21    \nframe=   25 fps=1.3 q=32.2 size=       0KiB time=00:00:00.38 bitrate=   0.9kbits/s speed=0.0194x elapsed=0:00:19.72    \nframe=   25 fps=1.2 q=32.2 size=       0KiB time=00:00:00.38 bitrate=   0.9kbits/s speed=0.0189x elapsed=0:00:20.24    \nframe=   26 fps=1.3 q=31.2 size=       0KiB time=00:00:00.40 bitrate=   0.9kbits/s speed=0.0193x elapsed=0:00:20.76    \nframe=   26 fps=1.2 q=31.2 size=       0KiB time=00:00:00.40 bitrate=   0.9kbits/s speed=0.0188x elapsed=0:00:21.29    \nframe=   27 fps=1.2 q=26.3 size=       0KiB time=00:00:00.41 bitrate=   0.8kbits/s speed=0.0191x elapsed=0:00:21.80    \nframe=   27 fps=1.2 q=26.3 size=       0KiB time=00:00:00.41 bitrate=   0.8kbits/s speed=0.0187x elapsed=0:00:22.32    \nframe=   28 fps=1.2 q=32.0 size=       0KiB time=00:00:00.43 bitrate=   0.8kbits/s speed=0.019x elapsed=0:00:22.83    \nframe=   29 fps=1.2 q=31.9 size=       0KiB time=00:00:00.45 bitrate=   0.8kbits/s speed=0.0193x elapsed=0:00:23.36    \nframe=   29 fps=1.2 q=31.9 size=       0KiB time=00:00:00.45 bitrate=   0.8kbits/s speed=0.0188x elapsed=0:00:23.87    \nframe=   29 fps=1.2 q=31.9 size=       0KiB time=00:00:00.45 bitrate=   0.8kbits/s speed=0.0184x elapsed=0:00:24.41    \nframe=   30 fps=1.2 q=31.5 size=       0KiB time=00:00:00.46 bitrate=   0.8kbits/s speed=0.0187x elapsed=0:00:24.93    \nframe=   30 fps=1.2 q=31.5 size=       0KiB time=00:00:00.46 bitrate=   0.8kbits/s speed=0.0183x elapsed=0:00:25.44    \nframe=   31 fps=1.2 q=31.3 size=       0KiB time=00:00:00.48 bitrate=   0.7kbits/s speed=0.0186x elapsed=0:00:25.96    \nframe=   32 fps=1.2 q=26.6 size=       0KiB time=00:00:00.50 bitrate=   0.7kbits/s speed=0.0189x elapsed=0:00:26.49    \nframe=   33 fps=1.2 q=29.7 size=       0KiB time=00:00:00.51 bitrate=   0.7kbits/s speed=0.0191x elapsed=0:00:27.02    \nframe=   33 fps=1.2 q=29.7 size=       0KiB time=00:00:00.51 bitrate=   0.7kbits/s speed=0.0187x elapsed=0:00:27.55    \nframe=   33 fps=1.2 q=29.7 size=       0KiB time=00:00:00.51 bitrate=   0.7kbits/s speed=0.0184x elapsed=0:00:28.10    \nframe=   33 fps=1.2 q=29.7 size=       0KiB time=00:00:00.51 bitrate=   0.7kbits/s speed=0.018x elapsed=0:00:28.65    \nframe=   33 fps=1.1 q=29.7 size=       0KiB time=00:00:00.51 bitrate=   0.7kbits/s speed=0.0177x elapsed=0:00:29.19    \nframe=   33 fps=1.1 q=29.7 size=       0KiB time=00:00:00.51 bitrate=   0.7kbits/s speed=0.0174x elapsed=0:00:29.70    \nframe=   34 fps=1.1 q=32.2 size=       0KiB time=00:00:00.53 bitrate=   0.7kbits/s speed=0.0176x elapsed=0:00:30.23    \nframe=   34 fps=1.1 q=32.2 size=       0KiB time=00:00:00.53 bitrate=   0.7kbits/s speed=0.0173x elapsed=0:00:30.75    \nframe=   35 fps=1.1 q=30.7 size=       0KiB time=00:00:00.55 bitrate=   0.6kbits/s speed=0.0176x elapsed=0:00:31.26    \nframe=   35 fps=1.1 q=30.7 size=       0KiB time=00:00:00.55 bitrate=   0.6kbits/s speed=0.0173x elapsed=0:00:31.78    \nframe=   36 fps=1.1 q=26.6 size=       0KiB time=00:00:00.56 bitrate=   0.6kbits/s speed=0.0175x elapsed=0:00:32.30    \nframe=   36 fps=1.1 q=26.6 size=       0KiB time=00:00:00.56 bitrate=   0.6kbits/s speed=0.0173x elapsed=0:00:32.82    \nframe=   37 fps=1.1 q=28.9 size=       0KiB time=00:00:00.58 bitrate=   0.6kbits/s speed=0.0175x elapsed=0:00:33.39    \nframe=   37 fps=1.1 q=28.9 size=       0KiB time=00:00:00.58 bitrate=   0.6kbits/s speed=0.0172x elapsed=0:00:33.92    \nframe=   37 fps=1.1 q=28.9 size=       0KiB time=00:00:00.58 bitrate=   0.6kbits/s speed=0.0169x elapsed=0:00:34.48    \nframe=   37 fps=1.1 q=28.9 size=       0KiB time=00:00:00.58 bitrate=   0.6kbits/s speed=0.0166x elapsed=0:00:35.04    \nframe=   38 fps=1.1 q=32.1 size=       0KiB time=00:00:00.60 bitrate=   0.6kbits/s speed=0.0169x elapsed=0:00:35.60    \nframe=   38 fps=1.1 q=32.1 size=       0KiB time=00:00:00.60 bitrate=   0.6kbits/s speed=0.0166x elapsed=0:00:36.13    \nframe=   38 fps=1.0 q=32.1 size=       0KiB time=00:00:00.60 bitrate=   0.6kbits/s speed=0.0164x elapsed=0:00:36.66    \nframe=   38 fps=1.0 q=32.1 size=       0KiB time=00:00:00.60 bitrate=   0.6kbits/s speed=0.0161x elapsed=0:00:37.18    \nframe=   38 fps=1.0 q=32.1 size=       0KiB time=00:00:00.60 bitrate=   0.6kbits/s speed=0.0159x elapsed=0:00:37.78    \nframe=   38 fps=1.0 q=32.1 size=       0KiB time=00:00:00.60 bitrate=   0.6kbits/s speed=0.0156x elapsed=0:00:38.36    \nframe=   39 fps=1.0 q=31.3 size=       0KiB time=00:00:00.61 bitrate=   0.6kbits/s speed=0.0158x elapsed=0:00:39.01    \nframe=   39 fps=1.0 q=31.3 size=       0KiB time=00:00:00.61 bitrate=   0.6kbits/s speed=0.0156x elapsed=0:00:39.63    \nframe=   39 fps=1.0 q=31.3 size=       0KiB time=00:00:00.61 bitrate=   0.6kbits/s speed=0.0153x elapsed=0:00:40.20    \nframe=   39 fps=1.0 q=31.3 size=       0KiB time=00:00:00.61 bitrate=   0.6kbits/s speed=0.0151x elapsed=0:00:40.75    \nframe=   39 fps=0.9 q=31.3 size=       0KiB time=00:00:00.61 bitrate=   0.6kbits/s speed=0.0149x elapsed=0:00:41.31    \nframe=   40 fps=1.0 q=30.7 size=       0KiB time=00:00:00.63 bitrate=   0.6kbits/s speed=0.0151x elapsed=0:00:41.85    \nframe=   41 fps=1.0 q=26.1 size=       0KiB time=00:00:00.65 bitrate=   0.5kbits/s speed=0.0153x elapsed=0:00:42.36    \nframe=   41 fps=1.0 q=26.1 size=       0KiB time=00:00:00.65 bitrate=   0.5kbits/s speed=0.0152x elapsed=0:00:42.89    \nframe=   42 fps=1.0 q=29.5 size=       0KiB time=00:00:00.66 bitrate=   0.5kbits/s speed=0.0153x elapsed=0:00:43.43    \nframe=   43 fps=1.0 q=31.2 size=       0KiB time=00:00:00.68 bitrate=   0.5kbits/s speed=0.0155x elapsed=0:00:43.95    \nframe=   43 fps=1.0 q=31.2 size=       0KiB time=00:00:00.68 bitrate=   0.5kbits/s speed=0.0154x elapsed=0:00:44.47    \nframe=   43 fps=1.0 q=31.2 size=       0KiB time=00:00:00.68 bitrate=   0.5kbits/s speed=0.0152x elapsed=0:00:45.00    \nframe=   43 fps=0.9 q=31.2 size=       0KiB time=00:00:00.68 bitrate=   0.5kbits/s speed=0.015x elapsed=0:00:45.54    \nframe=   45 fps=1.0 q=26.3 size=       0KiB time=00:00:00.71 bitrate=   0.5kbits/s speed=0.0155x elapsed=0:00:46.09    \nframe=   45 fps=1.0 q=26.3 size=       0KiB time=00:00:00.71 bitrate=   0.5kbits/s speed=0.0154x elapsed=0:00:46.62    \nframe=   46 fps=1.0 q=25.9 size=       0KiB time=00:00:00.73 bitrate=   0.5kbits/s speed=0.0156x elapsed=0:00:47.13    \nframe=   46 fps=1.0 q=25.9 size=       0KiB time=00:00:00.73 bitrate=   0.5kbits/s speed=0.0154x elapsed=0:00:47.64    \nframe=   46 fps=1.0 q=25.9 size=       0KiB time=00:00:00.73 bitrate=   0.5kbits/s speed=0.0152x elapsed=0:00:48.18    \nframe=   47 fps=1.0 q=31.7 size=       0KiB time=00:00:00.75 bitrate=   0.5kbits/s speed=0.0154x elapsed=0:00:48.70    \nframe=   48 fps=1.0 q=25.9 size=       0KiB time=00:00:00.76 bitrate=   0.5kbits/s speed=0.0156x elapsed=0:00:49.22    \nframe=   48 fps=1.0 q=25.9 size=       0KiB time=00:00:00.76 bitrate=   0.5kbits/s speed=0.0154x elapsed=0:00:49.74    \nframe=   48 fps=1.0 q=25.9 size=       0KiB time=00:00:00.76 bitrate=   0.5kbits/s speed=0.0152x elapsed=0:00:50.28    \nframe=   49 fps=1.0 q=30.1 size=       0KiB time=00:00:00.78 bitrate=   0.4kbits/s speed=0.0154x elapsed=0:00:50.81    \nframe=   50 fps=1.0 q=31.8 size=       0KiB time=00:00:00.80 bitrate=   0.4kbits/s speed=0.0156x elapsed=0:00:51.33    \nframe=   50 fps=1.0 q=31.8 size=       0KiB time=00:00:00.80 bitrate=   0.4kbits/s speed=0.0154x elapsed=0:00:51.85    \nframe=   50 fps=1.0 q=31.8 size=       0KiB time=00:00:00.80 bitrate=   0.4kbits/s speed=0.0153x elapsed=0:00:52.37    \nframe=   51 fps=1.0 q=32.2 size=       0KiB time=00:00:00.81 bitrate=   0.4kbits/s speed=0.0154x elapsed=0:00:52.88    \nframe=   51 fps=1.0 q=32.2 size=       0KiB time=00:00:00.81 bitrate=   0.4kbits/s speed=0.0153x elapsed=0:00:53.40    \nframe=   52 fps=1.0 q=32.3 size=       0KiB time=00:00:00.83 bitrate=   0.4kbits/s speed=0.0155x elapsed=0:00:53.93    \nframe=   52 fps=1.0 q=32.3 size=       0KiB time=00:00:00.83 bitrate=   0.4kbits/s speed=0.0153x elapsed=0:00:54.45    \nframe=   54 fps=1.0 q=30.1 size=       0KiB time=00:00:00.86 bitrate=   0.4kbits/s speed=0.0158x elapsed=0:00:54.96    \nframe=   54 fps=1.0 q=30.1 size=       0KiB time=00:00:00.86 bitrate=   0.4kbits/s speed=0.0156x elapsed=0:00:55.48    \nframe=   54 fps=1.0 q=30.1 size=       0KiB time=00:00:00.86 bitrate=   0.4kbits/s speed=0.0155x elapsed=0:00:55.99    \nframe=   54 fps=1.0 q=30.1 size=       0KiB time=00:00:00.86 bitrate=   0.4kbits/s speed=0.0153x elapsed=0:00:56.50    \nframe=   55 fps=1.0 q=32.7 size=       0KiB time=00:00:00.88 bitrate=   0.4kbits/s speed=0.0155x elapsed=0:00:57.02    \nframe=   56 fps=1.0 q=33.0 size=       0KiB time=00:00:00.90 bitrate=   0.4kbits/s speed=0.0156x elapsed=0:00:57.55    \nframe=   56 fps=1.0 q=33.0 size=       0KiB time=00:00:00.90 bitrate=   0.4kbits/s speed=0.0155x elapsed=0:00:58.08    \nframe=   56 fps=1.0 q=33.0 size=       0KiB time=00:00:00.90 bitrate=   0.4kbits/s speed=0.0153x elapsed=0:00:58.65    \nframe=   57 fps=1.0 q=26.4 size=       0KiB time=00:00:00.91 bitrate=   0.4kbits/s speed=0.0155x elapsed=0:00:59.21    \nframe=   57 fps=1.0 q=26.4 size=       0KiB time=00:00:00.91 bitrate=   0.4kbits/s speed=0.0153x elapsed=0:00:59.82    \nframe=   57 fps=0.9 q=26.4 size=       0KiB time=00:00:00.91 bitrate=   0.4kbits/s speed=0.0152x elapsed=0:01:00.37    \nframe=   58 fps=1.0 q=30.5 size=       0KiB time=00:00:00.93 bitrate=   0.4kbits/s speed=0.0153x elapsed=0:01:00.88    \nframe=   58 fps=0.9 q=30.5 size=       0KiB time=00:00:00.93 bitrate=   0.4kbits/s speed=0.0152x elapsed=0:01:01.44    \nframe=   58 fps=0.9 q=30.5 size=       0KiB time=00:00:00.93 bitrate=   0.4kbits/s speed=0.0151x elapsed=0:01:01.97    \nframe=   58 fps=0.9 q=30.5 size=       0KiB time=00:00:00.93 bitrate=   0.4kbits/s speed=0.0149x elapsed=0:01:02.50    \nframe=   58 fps=0.9 q=30.5 size=       0KiB time=00:00:00.93 bitrate=   0.4kbits/s speed=0.0148x elapsed=0:01:03.06    \nframe=   59 fps=0.9 q=32.9 size=       0KiB time=00:00:00.95 bitrate=   0.4kbits/s speed=0.0149x elapsed=0:01:03.58    \nframe=   59 fps=0.9 q=32.9 size=       0KiB time=00:00:00.95 bitrate=   0.4kbits/s speed=0.0148x elapsed=0:01:04.10    \nframe=   60 fps=0.9 q=33.0 size=       0KiB time=00:00:00.96 bitrate=   0.4kbits/s speed=0.0149x elapsed=0:01:04.68    \nframe=   60 fps=0.9 q=33.0 size=       0KiB time=00:00:00.96 bitrate=   0.4kbits/s speed=0.0148x elapsed=0:01:05.22    \nframe=   60 fps=0.9 q=33.0 size=       0KiB time=00:00:00.96 bitrate=   0.4kbits/s speed=0.0147x elapsed=0:01:05.75    \nframe=   60 fps=0.9 q=33.0 size=       0KiB time=00:00:00.96 bitrate=   0.4kbits/s speed=0.0146x elapsed=0:01:06.25    \nframe=   61 fps=0.9 q=27.8 size=       0KiB time=00:00:00.98 bitrate=   0.4kbits/s speed=0.0147x elapsed=0:01:06.77    \nframe=   61 fps=0.9 q=27.8 size=       0KiB time=00:00:00.98 bitrate=   0.4kbits/s speed=0.0146x elapsed=0:01:07.30    \nframe=   62 fps=0.9 q=30.9 size=       0KiB time=00:00:01.00 bitrate=   0.4kbits/s speed=0.0147x elapsed=0:01:07.83    \nframe=   62 fps=0.9 q=30.9 size=       0KiB time=00:00:01.00 bitrate=   0.4kbits/s speed=0.0146x elapsed=0:01:08.35    \nframe=   62 fps=0.9 q=30.9 size=       0KiB time=00:00:01.00 bitrate=   0.4kbits/s speed=0.0145x elapsed=0:01:08.89    \nframe=   63 fps=0.9 q=32.9 size=       0KiB time=00:00:01.01 bitrate=   0.3kbits/s speed=0.0146x elapsed=0:01:09.43    \nframe=   63 fps=0.9 q=32.9 size=       0KiB time=00:00:01.01 bitrate=   0.3kbits/s speed=0.0145x elapsed=0:01:09.96    \nframe=   63 fps=0.9 q=32.9 size=       0KiB time=00:00:01.01 bitrate=   0.3kbits/s speed=0.0144x elapsed=0:01:10.53    \nframe=   64 fps=0.9 q=33.0 size=       0KiB time=00:00:01.03 bitrate=   0.3kbits/s speed=0.0145x elapsed=0:01:11.03    \nframe=   64 fps=0.9 q=33.0 size=       0KiB time=00:00:01.03 bitrate=   0.3kbits/s speed=0.0144x elapsed=0:01:11.58    \nframe=   64 fps=0.9 q=33.0 size=       0KiB time=00:00:01.03 bitrate=   0.3kbits/s speed=0.0143x elapsed=0:01:12.12    \nframe=   64 fps=0.9 q=33.0 size=       0KiB time=00:00:01.03 bitrate=   0.3kbits/s speed=0.0142x elapsed=0:01:12.66    \nframe=   64 fps=0.9 q=33.0 size=       0KiB time=00:00:01.03 bitrate=   0.3kbits/s speed=0.0141x elapsed=0:01:13.21    \nframe=   65 fps=0.9 q=27.9 size=       0KiB time=00:00:01.05 bitrate=   0.3kbits/s speed=0.0142x elapsed=0:01:13.75    \nframe=   65 fps=0.9 q=27.9 size=       0KiB time=00:00:01.05 bitrate=   0.3kbits/s speed=0.0141x elapsed=0:01:14.28    \nframe=   66 fps=0.9 q=30.5 size=       0KiB time=00:00:01.06 bitrate=   0.3kbits/s speed=0.0143x elapsed=0:01:14.83    \nframe=   66 fps=0.9 q=30.5 size=       0KiB time=00:00:01.06 bitrate=   0.3kbits/s speed=0.0142x elapsed=0:01:15.35    \nframe=   66 fps=0.9 q=30.5 size=       0KiB time=00:00:01.06 bitrate=   0.3kbits/s speed=0.0141x elapsed=0:01:15.89    \nframe=   67 fps=0.9 q=33.8 size=       0KiB time=00:00:01.08 bitrate=   0.3kbits/s speed=0.0142x elapsed=0:01:16.41    \nframe=   67 fps=0.9 q=33.8 size=       0KiB time=00:00:01.08 bitrate=   0.3kbits/s speed=0.0141x elapsed=0:01:16.92    \nframe=   67 fps=0.9 q=33.8 size=       0KiB time=00:00:01.08 bitrate=   0.3kbits/s speed=0.014x elapsed=0:01:17.44    \nframe=   68 fps=0.9 q=33.2 size=       0KiB time=00:00:01.10 bitrate=   0.3kbits/s speed=0.0141x elapsed=0:01:17.96    \nframe=   69 fps=0.9 q=27.7 size=       0KiB time=00:00:01.11 bitrate=   0.3kbits/s speed=0.0142x elapsed=0:01:18.52    \nframe=   69 fps=0.9 q=27.7 size=       0KiB time=00:00:01.11 bitrate=   0.3kbits/s speed=0.0141x elapsed=0:01:19.04    \nframe=   70 fps=0.9 q=31.7 size=     256KiB time=00:00:01.13 bitrate=1850.7kbits/s speed=0.0142x elapsed=0:01:19.55    \nframe=   70 fps=0.9 q=31.7 size=     256KiB time=00:00:01.13 bitrate=1850.7kbits/s speed=0.0142x elapsed=0:01:20.08    \nframe=   70 fps=0.9 q=31.7 size=     256KiB time=00:00:01.13 bitrate=1850.7kbits/s speed=0.0141x elapsed=0:01:20.63    \nframe=   70 fps=0.9 q=31.7 size=     256KiB time=00:00:01.13 bitrate=1850.7kbits/s speed=0.014x elapsed=0:01:21.18    \nframe=   71 fps=0.9 q=32.8 size=     256KiB time=00:00:01.15 bitrate=1823.9kbits/s speed=0.0141x elapsed=0:01:21.72    \nframe=   72 fps=0.9 q=32.8 size=     256KiB time=00:00:01.16 bitrate=1797.9kbits/s speed=0.0142x elapsed=0:01:22.22    \nframe=   72 fps=0.9 q=32.8 size=     256KiB time=00:00:01.16 bitrate=1797.9kbits/s speed=0.0141x elapsed=0:01:22.75    \nframe=   72 fps=0.9 q=32.8 size=     256KiB time=00:00:01.16 bitrate=1797.9kbits/s speed=0.014x elapsed=0:01:23.29    \nframe=   72 fps=0.9 q=32.8 size=     256KiB time=00:00:01.16 bitrate=1797.9kbits/s speed=0.0139x elapsed=0:01:23.82    \nframe=   73 fps=0.9 q=32.7 size=     256KiB time=00:00:01.18 bitrate=1772.5kbits/s speed=0.014x elapsed=0:01:24.40    \nframe=   73 fps=0.9 q=32.7 size=     256KiB time=00:00:01.18 bitrate=1772.5kbits/s speed=0.0139x elapsed=0:01:24.99    \nframe=   73 fps=0.9 q=32.7 size=     256KiB time=00:00:01.18 bitrate=1772.5kbits/s speed=0.0138x elapsed=0:01:25.54    \nframe=   74 fps=0.9 q=27.9 size=     256KiB time=00:00:01.20 bitrate=1747.9kbits/s speed=0.0139x elapsed=0:01:26.08    \nframe=   74 fps=0.9 q=27.9 size=     256KiB time=00:00:01.20 bitrate=1747.9kbits/s speed=0.0139x elapsed=0:01:26.63    \nframe=   74 fps=0.8 q=27.9 size=     256KiB time=00:00:01.20 bitrate=1747.9kbits/s speed=0.0138x elapsed=0:01:27.18    \nframe=   74 fps=0.8 q=27.9 size=     256KiB time=00:00:01.20 bitrate=1747.9kbits/s speed=0.0137x elapsed=0:01:27.77    \nframe=   74 fps=0.8 q=27.9 size=     256KiB time=00:00:01.20 bitrate=1747.9kbits/s speed=0.0136x elapsed=0:01:28.39    \nframe=   75 fps=0.8 q=29.3 size=     256KiB time=00:00:01.21 bitrate=1724.0kbits/s speed=0.0137x elapsed=0:01:28.94    \nframe=   75 fps=0.8 q=29.3 size=     256KiB time=00:00:01.21 bitrate=1724.0kbits/s speed=0.0136x elapsed=0:01:29.51    \nframe=   75 fps=0.8 q=29.3 size=     256KiB time=00:00:01.21 bitrate=1724.0kbits/s speed=0.0135x elapsed=0:01:30.03    \nframe=   75 fps=0.8 q=29.3 size=     256KiB time=00:00:01.21 bitrate=1724.0kbits/s speed=0.0134x elapsed=0:01:30.63    \nframe=   75 fps=0.8 q=29.3 size=     256KiB time=00:00:01.21 bitrate=1724.0kbits/s speed=0.0133x elapsed=0:01:31.19    \nframe=   75 fps=0.8 q=29.3 size=     256KiB time=00:00:01.21 bitrate=1724.0kbits/s speed=0.0133x elapsed=0:01:31.74    \nframe=   75 fps=0.8 q=29.3 size=     256KiB time=00:00:01.21 bitrate=1724.0kbits/s speed=0.0132x elapsed=0:01:32.28    \nframe=   76 fps=0.8 q=33.1 size=     256KiB time=00:00:01.23 bitrate=1700.7kbits/s speed=0.0133x elapsed=0:01:32.82    \nframe=   76 fps=0.8 q=33.1 size=     256KiB time=00:00:01.23 bitrate=1700.7kbits/s speed=0.0132x elapsed=0:01:33.33    \nframe=   76 fps=0.8 q=33.1 size=     256KiB time=00:00:01.23 bitrate=1700.7kbits/s speed=0.0131x elapsed=0:01:33.86    \nframe=   77 fps=0.8 q=33.0 size=     256KiB time=00:00:01.25 bitrate=1678.0kbits/s speed=0.0132x elapsed=0:01:34.38    \nframe=   77 fps=0.8 q=33.0 size=     256KiB time=00:00:01.25 bitrate=1678.0kbits/s speed=0.0132x elapsed=0:01:34.90    \nframe=   77 fps=0.8 q=33.0 size=     256KiB time=00:00:01.25 bitrate=1678.0kbits/s speed=0.0131x elapsed=0:01:35.45    \nframe=   78 fps=0.8 q=33.0 size=     256KiB time=00:00:01.26 bitrate=1655.9kbits/s speed=0.0132x elapsed=0:01:35.98    \nframe=   79 fps=0.8 q=28.1 size=     256KiB time=00:00:01.28 bitrate=1634.4kbits/s speed=0.0133x elapsed=0:01:36.48    \nframe=   80 fps=0.8 q=30.5 size=     256KiB time=00:00:01.30 bitrate=1613.5kbits/s speed=0.0134x elapsed=0:01:37.01    \nframe=   80 fps=0.8 q=30.5 size=     256KiB time=00:00:01.30 bitrate=1613.5kbits/s speed=0.0133x elapsed=0:01:37.52    \nframe=   81 fps=0.8 q=33.0 size=     256KiB time=00:00:01.31 bitrate=1593.0kbits/s speed=0.0134x elapsed=0:01:38.04    \nframe=   81 fps=0.8 q=33.0 size=     256KiB time=00:00:01.31 bitrate=1593.0kbits/s speed=0.0134x elapsed=0:01:38.55    \nframe=   81 fps=0.8 q=33.0 size=     256KiB time=00:00:01.31 bitrate=1593.0kbits/s speed=0.0133x elapsed=0:01:39.07    \nframe=   82 fps=0.8 q=32.8 size=     256KiB time=00:00:01.33 bitrate=1573.1kbits/s speed=0.0134x elapsed=0:01:39.58    \nframe=   82 fps=0.8 q=32.8 size=     256KiB time=00:00:01.33 bitrate=1573.1kbits/s speed=0.0133x elapsed=0:01:40.11    \nframe=   82 fps=0.8 q=32.8 size=     256KiB time=00:00:01.33 bitrate=1573.1kbits/s speed=0.0132x elapsed=0:01:40.64    \nframe=   83 fps=0.8 q=33.0 size=     256KiB time=00:00:01.35 bitrate=1553.7kbits/s speed=0.0133x elapsed=0:01:41.18    \nframe=   84 fps=0.8 q=27.9 size=     256KiB time=00:00:01.36 bitrate=1534.8kbits/s speed=0.0134x elapsed=0:01:41.69    \nframe=   84 fps=0.8 q=27.9 size=     256KiB time=00:00:01.36 bitrate=1534.8kbits/s speed=0.0134x elapsed=0:01:42.20    \nframe=   84 fps=0.8 q=27.9 size=     256KiB time=00:00:01.36 bitrate=1534.8kbits/s speed=0.0133x elapsed=0:01:42.74    \nframe=   84 fps=0.8 q=27.9 size=     256KiB time=00:00:01.36 bitrate=1534.8kbits/s speed=0.0132x elapsed=0:01:43.28    \nframe=   86 fps=0.8 q=33.5 size=     256KiB time=00:00:01.40 bitrate=1498.2kbits/s speed=0.0135x elapsed=0:01:43.80    \nframe=   86 fps=0.8 q=33.5 size=     256KiB time=00:00:01.40 bitrate=1498.2kbits/s speed=0.0134x elapsed=0:01:44.32    \nframe=   86 fps=0.8 q=33.5 size=     256KiB time=00:00:01.40 bitrate=1498.2kbits/s speed=0.0134x elapsed=0:01:44.85    \nframe=   86 fps=0.8 q=33.5 size=     256KiB time=00:00:01.40 bitrate=1498.2kbits/s speed=0.0133x elapsed=0:01:45.41    \nframe=   87 fps=0.8 q=33.5 size=     256KiB time=00:00:01.41 bitrate=1480.6kbits/s speed=0.0134x elapsed=0:01:45.93    \nframe=   88 fps=0.8 q=33.3 size=     256KiB time=00:00:01.43 bitrate=1463.4kbits/s speed=0.0135x elapsed=0:01:46.44    \nframe=   88 fps=0.8 q=33.3 size=     256KiB time=00:00:01.43 bitrate=1463.4kbits/s speed=0.0134x elapsed=0:01:46.97    \nframe=   89 fps=0.8 q=27.6 size=     256KiB time=00:00:01.45 bitrate=1446.6kbits/s speed=0.0135x elapsed=0:01:47.52    \nframe=   90 fps=0.8 q=31.9 size=     256KiB time=00:00:01.46 bitrate=1430.1kbits/s speed=0.0136x elapsed=0:01:48.05    \nframe=   91 fps=0.8 q=32.8 size=     256KiB time=00:00:01.48 bitrate=1414.0kbits/s speed=0.0137x elapsed=0:01:48.57    \nframe=   91 fps=0.8 q=32.8 size=     256KiB time=00:00:01.48 bitrate=1414.0kbits/s speed=0.0136x elapsed=0:01:49.09    \nframe=   91 fps=0.8 q=32.8 size=     256KiB time=00:00:01.48 bitrate=1414.0kbits/s speed=0.0135x elapsed=0:01:49.61    \nframe=   91 fps=0.8 q=32.8 size=     256KiB time=00:00:01.48 bitrate=1414.0kbits/s speed=0.0135x elapsed=0:01:50.15    \nframe=   92 fps=0.8 q=32.7 size=     256KiB time=00:00:01.50 bitrate=1398.3kbits/s speed=0.0136x elapsed=0:01:50.67    \nframe=   93 fps=0.8 q=32.7 size=     256KiB time=00:00:01.51 bitrate=1383.0kbits/s speed=0.0136x elapsed=0:01:51.20    \nframe=   93 fps=0.8 q=32.7 size=     256KiB time=00:00:01.51 bitrate=1383.0kbits/s speed=0.0136x elapsed=0:01:51.70    \nframe=   94 fps=0.8 q=27.0 size=     256KiB time=00:00:01.53 bitrate=1367.9kbits/s speed=0.0137x elapsed=0:01:52.22    \nframe=   94 fps=0.8 q=27.0 size=     256KiB time=00:00:01.53 bitrate=1367.9kbits/s speed=0.0136x elapsed=0:01:52.74    \nframe=   95 fps=0.8 q=31.4 size=     256KiB time=00:00:01.55 bitrate=1353.2kbits/s speed=0.0137x elapsed=0:01:53.27    \nframe=   96 fps=0.8 q=33.0 size=     256KiB time=00:00:01.56 bitrate=1338.8kbits/s speed=0.0138x elapsed=0:01:53.78    \nframe=   96 fps=0.8 q=33.0 size=     256KiB time=00:00:01.56 bitrate=1338.8kbits/s speed=0.0137x elapsed=0:01:54.31    \nframe=   97 fps=0.8 q=32.8 size=     256KiB time=00:00:01.58 bitrate=1324.7kbits/s speed=0.0138x elapsed=0:01:54.85    \nframe=   97 fps=0.8 q=32.8 size=     256KiB time=00:00:01.58 bitrate=1324.7kbits/s speed=0.0137x elapsed=0:01:55.38    \nframe=   98 fps=0.8 q=32.8 size=     256KiB time=00:00:01.60 bitrate=1310.9kbits/s speed=0.0138x elapsed=0:01:55.91    \nframe=   99 fps=0.9 q=27.5 size=     256KiB time=00:00:01.61 bitrate=1297.4kbits/s speed=0.0139x elapsed=0:01:56.42    \nframe=   99 fps=0.8 q=27.5 size=     256KiB time=00:00:01.61 bitrate=1297.4kbits/s speed=0.0138x elapsed=0:01:56.97    \nframe=   99 fps=0.8 q=27.5 size=     256KiB time=00:00:01.61 bitrate=1297.4kbits/s speed=0.0138x elapsed=0:01:57.50    \nframe=  101 fps=0.9 q=32.1 size=     256KiB time=00:00:01.65 bitrate=1271.2kbits/s speed=0.014x elapsed=0:01:58.03    \nframe=  101 fps=0.9 q=32.1 size=     256KiB time=00:00:01.65 bitrate=1271.2kbits/s speed=0.0139x elapsed=0:01:58.53    \nframe=  101 fps=0.8 q=32.1 size=     256KiB time=00:00:01.65 bitrate=1271.2kbits/s speed=0.0139x elapsed=0:01:59.04    \nframe=  102 fps=0.9 q=31.6 size=     256KiB time=00:00:01.66 bitrate=1258.5kbits/s speed=0.0139x elapsed=0:01:59.59    \nframe=  102 fps=0.8 q=31.6 size=     256KiB time=00:00:01.66 bitrate=1258.5kbits/s speed=0.0139x elapsed=0:02:00.10    \nframe=  104 fps=0.9 q=25.7 size=     256KiB time=00:00:01.70 bitrate=1233.8kbits/s speed=0.0141x elapsed=0:02:00.61    \nframe=  104 fps=0.9 q=25.7 size=     256KiB time=00:00:01.70 bitrate=1233.8kbits/s speed=0.014x elapsed=0:02:01.15    \nframe=  106 fps=0.9 q=32.0 size=     256KiB time=00:00:01.73 bitrate=1210.1kbits/s speed=0.0142x elapsed=0:02:01.68    \nframe=  106 fps=0.9 q=32.0 size=     256KiB time=00:00:01.73 bitrate=1210.1kbits/s speed=0.0142x elapsed=0:02:02.19    \nframe=  107 fps=0.9 q=32.0 size=     256KiB time=00:00:01.75 bitrate=1198.6kbits/s speed=0.0143x elapsed=0:02:02.70    \nframe=  108 fps=0.9 q=31.8 size=     256KiB time=00:00:01.76 bitrate=1187.3kbits/s speed=0.0143x elapsed=0:02:03.24    \nframe=  108 fps=0.9 q=31.8 size=     256KiB time=00:00:01.76 bitrate=1187.3kbits/s speed=0.0143x elapsed=0:02:03.78    \nframe=  108 fps=0.9 q=31.8 size=     256KiB time=00:00:01.76 bitrate=1187.3kbits/s speed=0.0142x elapsed=0:02:04.30    \nframe=  109 fps=0.9 q=26.4 size=     256KiB time=00:00:01.78 bitrate=1176.2kbits/s speed=0.0143x elapsed=0:02:04.81    \nframe=  110 fps=0.9 q=30.9 size=     256KiB time=00:00:01.80 bitrate=1165.3kbits/s speed=0.0144x elapsed=0:02:05.33    \nframe=  110 fps=0.9 q=30.9 size=     256KiB time=00:00:01.80 bitrate=1165.3kbits/s speed=0.0143x elapsed=0:02:05.86    \nframe=  111 fps=0.9 q=31.8 size=     256KiB time=00:00:01.81 bitrate=1154.6kbits/s speed=0.0144x elapsed=0:02:06.38    \nframe=  112 fps=0.9 q=31.7 size=     256KiB time=00:00:01.83 bitrate=1144.1kbits/s speed=0.0144x elapsed=0:02:06.92    \nframe=  112 fps=0.9 q=31.7 size=     256KiB time=00:00:01.83 bitrate=1144.1kbits/s speed=0.0144x elapsed=0:02:07.45    \nframe=  113 fps=0.9 q=32.3 size=     256KiB time=00:00:01.85 bitrate=1133.8kbits/s speed=0.0145x elapsed=0:02:07.96    \nframe=  114 fps=0.9 q=25.4 size=     256KiB time=00:00:01.86 bitrate=1123.7kbits/s speed=0.0145x elapsed=0:02:08.48    \nframe=  115 fps=0.9 q=30.8 size=     256KiB time=00:00:01.88 bitrate=1113.7kbits/s speed=0.0146x elapsed=0:02:08.99    \nframe=  116 fps=0.9 q=31.8 size=     256KiB time=00:00:01.90 bitrate=1103.9kbits/s speed=0.0147x elapsed=0:02:09.51    \nframe=  116 fps=0.9 q=31.8 size=     256KiB time=00:00:01.90 bitrate=1103.9kbits/s speed=0.0146x elapsed=0:02:10.03    \nframe=  117 fps=0.9 q=32.0 size=     256KiB time=00:00:01.91 bitrate=1094.3kbits/s speed=0.0147x elapsed=0:02:10.57    \nframe=  117 fps=0.9 q=32.0 size=     256KiB time=00:00:01.91 bitrate=1094.3kbits/s speed=0.0146x elapsed=0:02:11.11    \nframe=  118 fps=0.9 q=32.1 size=     256KiB time=00:00:01.93 bitrate=1084.9kbits/s speed=0.0147x elapsed=0:02:11.63    \nframe=  120 fps=0.9 q=30.7 size=     256KiB time=00:00:01.96 bitrate=1066.5kbits/s speed=0.0149x elapsed=0:02:12.16    \nframe=  121 fps=0.9 q=31.5 size=     256KiB time=00:00:01.98 bitrate=1057.6kbits/s speed=0.0149x elapsed=0:02:12.68    \nframe=  121 fps=0.9 q=31.5 size=     256KiB time=00:00:01.98 bitrate=1057.6kbits/s speed=0.0149x elapsed=0:02:13.19    \nframe=  122 fps=0.9 q=31.9 size=     256KiB time=00:00:02.00 bitrate=1048.8kbits/s speed=0.015x elapsed=0:02:13.73    \nframe=  123 fps=0.9 q=31.8 size=     256KiB time=00:00:02.01 bitrate=1040.1kbits/s speed=0.015x elapsed=0:02:14.23    \nframe=  123 fps=0.9 q=31.8 size=     256KiB time=00:00:02.01 bitrate=1040.1kbits/s speed=0.015x elapsed=0:02:14.75    \nframe=  125 fps=0.9 q=30.8 size=     256KiB time=00:00:02.05 bitrate=1023.2kbits/s speed=0.0152x elapsed=0:02:15.27    \nframe=  125 fps=0.9 q=30.8 size=     256KiB time=00:00:02.05 bitrate=1023.2kbits/s speed=0.0151x elapsed=0:02:15.80    \nframe=  125 fps=0.9 q=30.8 size=     256KiB time=00:00:02.05 bitrate=1023.2kbits/s speed=0.015x elapsed=0:02:16.31    \nframe=  127 fps=0.9 q=31.8 size=     256KiB time=00:00:02.08 bitrate=1006.8kbits/s speed=0.0152x elapsed=0:02:16.84    \nframe=  128 fps=0.9 q=32.1 size=     256KiB time=00:00:02.10 bitrate= 998.8kbits/s speed=0.0153x elapsed=0:02:17.36    \nframe=  128 fps=0.9 q=32.1 size=     256KiB time=00:00:02.10 bitrate= 998.8kbits/s speed=0.0152x elapsed=0:02:17.89    \nframe=  128 fps=0.9 q=32.1 size=     256KiB time=00:00:02.10 bitrate= 998.8kbits/s speed=0.0152x elapsed=0:02:18.41    \nframe=  129 fps=0.9 q=25.5 size=     256KiB time=00:00:02.11 bitrate= 990.9kbits/s speed=0.0152x elapsed=0:02:18.93    \nframe=  130 fps=0.9 q=31.0 size=     256KiB time=00:00:02.13 bitrate= 983.2kbits/s speed=0.0153x elapsed=0:02:19.44    \nframe=  130 fps=0.9 q=31.0 size=     256KiB time=00:00:02.13 bitrate= 983.2kbits/s speed=0.0152x elapsed=0:02:19.96    \nframe=  131 fps=0.9 q=32.2 size=     512KiB time=00:00:02.15 bitrate=1951.0kbits/s speed=0.0153x elapsed=0:02:20.50    \nframe=  133 fps=0.9 q=31.3 size=     512KiB time=00:00:02.18 bitrate=1921.2kbits/s speed=0.0155x elapsed=0:02:21.03    \nframe=  133 fps=0.9 q=31.3 size=     512KiB time=00:00:02.18 bitrate=1921.2kbits/s speed=0.0154x elapsed=0:02:21.55    \nframe=  133 fps=0.9 q=31.3 size=     512KiB time=00:00:02.18 bitrate=1921.2kbits/s speed=0.0154x elapsed=0:02:22.11    \nframe=  133 fps=0.9 q=31.3 size=     512KiB time=00:00:02.18 bitrate=1921.2kbits/s speed=0.0153x elapsed=0:02:22.62    \nframe=  133 fps=0.9 q=31.3 size=     512KiB time=00:00:02.18 bitrate=1921.2kbits/s speed=0.0152x elapsed=0:02:23.17    \nframe=  134 fps=0.9 q=25.1 size=     512KiB time=00:00:02.20 bitrate=1906.7kbits/s speed=0.0153x elapsed=0:02:23.71    \nframe=  135 fps=0.9 q=30.2 size=     512KiB time=00:00:02.21 bitrate=1892.3kbits/s speed=0.0154x elapsed=0:02:24.22    \nframe=  135 fps=0.9 q=30.2 size=     512KiB time=00:00:02.21 bitrate=1892.3kbits/s speed=0.0153x elapsed=0:02:24.74    \nframe=  136 fps=0.9 q=31.1 size=     512KiB time=00:00:02.23 bitrate=1878.2kbits/s speed=0.0154x elapsed=0:02:25.31    \nframe=  137 fps=0.9 q=31.1 size=     512KiB time=00:00:02.25 bitrate=1864.3kbits/s speed=0.0154x elapsed=0:02:25.82    \nframe=  137 fps=0.9 q=31.1 size=     512KiB time=00:00:02.25 bitrate=1864.3kbits/s speed=0.0154x elapsed=0:02:26.36    \nframe=  138 fps=0.9 q=30.8 size=     512KiB time=00:00:02.26 bitrate=1850.6kbits/s speed=0.0154x elapsed=0:02:26.94    \nframe=  138 fps=0.9 q=30.8 size=     512KiB time=00:00:02.26 bitrate=1850.6kbits/s speed=0.0154x elapsed=0:02:27.48    \nframe=  138 fps=0.9 q=30.8 size=     512KiB time=00:00:02.26 bitrate=1850.6kbits/s speed=0.0153x elapsed=0:02:28.00    \nframe=  138 fps=0.9 q=30.8 size=     512KiB time=00:00:02.26 bitrate=1850.6kbits/s speed=0.0153x elapsed=0:02:28.53    \nframe=  139 fps=0.9 q=25.3 size=     512KiB time=00:00:02.28 bitrate=1837.1kbits/s speed=0.0153x elapsed=0:02:29.05    \nframe=  140 fps=0.9 q=28.2 size=     512KiB time=00:00:02.30 bitrate=1823.8kbits/s speed=0.0154x elapsed=0:02:29.60    \nframe=  140 fps=0.9 q=28.2 size=     512KiB time=00:00:02.30 bitrate=1823.8kbits/s speed=0.0153x elapsed=0:02:30.15    \nframe=  140 fps=0.9 q=28.2 size=     512KiB time=00:00:02.30 bitrate=1823.8kbits/s speed=0.0153x elapsed=0:02:30.67    \nframe=  141 fps=0.9 q=31.4 size=     512KiB time=00:00:02.31 bitrate=1810.6kbits/s speed=0.0153x elapsed=0:02:31.18    \nframe=  141 fps=0.9 q=31.4 size=     512KiB time=00:00:02.31 bitrate=1810.6kbits/s speed=0.0153x elapsed=0:02:31.69    \nframe=  142 fps=0.9 q=31.9 size=     512KiB time=00:00:02.33 bitrate=1797.7kbits/s speed=0.0153x elapsed=0:02:32.21    \nframe=  142 fps=0.9 q=31.9 size=     512KiB time=00:00:02.33 bitrate=1797.7kbits/s speed=0.0153x elapsed=0:02:32.74    \nframe=  142 fps=0.9 q=31.9 size=     512KiB time=00:00:02.33 bitrate=1797.7kbits/s speed=0.0152x elapsed=0:02:33.29    \nframe=  142 fps=0.9 q=31.9 size=     512KiB time=00:00:02.33 bitrate=1797.7kbits/s speed=0.0152x elapsed=0:02:33.87    \nframe=  142 fps=0.9 q=31.9 size=     512KiB time=00:00:02.33 bitrate=1797.7kbits/s speed=0.0151x elapsed=0:02:34.42    \nframe=  143 fps=0.9 q=26.0 size=     512KiB time=00:00:02.35 bitrate=1785.0kbits/s speed=0.0152x elapsed=0:02:35.00    \nframe=  144 fps=0.9 q=29.3 size=     512KiB time=00:00:02.36 bitrate=1772.4kbits/s speed=0.0152x elapsed=0:02:35.54    \nframe=  144 fps=0.9 q=29.3 size=     512KiB time=00:00:02.36 bitrate=1772.4kbits/s speed=0.0152x elapsed=0:02:36.06    \nframe=  145 fps=0.9 q=32.0 size=     512KiB time=00:00:02.38 bitrate=1760.0kbits/s speed=0.0152x elapsed=0:02:36.63    \nframe=  145 fps=0.9 q=32.0 size=     512KiB time=00:00:02.38 bitrate=1760.0kbits/s speed=0.0152x elapsed=0:02:37.26    \nframe=  145 fps=0.9 q=32.0 size=     512KiB time=00:00:02.38 bitrate=1760.0kbits/s speed=0.0151x elapsed=0:02:37.84    \nframe=  145 fps=0.9 q=32.0 size=     512KiB time=00:00:02.38 bitrate=1760.0kbits/s speed=0.015x elapsed=0:02:38.40    \nframe=  146 fps=0.9 q=31.9 size=     512KiB time=00:00:02.40 bitrate=1747.8kbits/s speed=0.0151x elapsed=0:02:38.96    \nframe=  146 fps=0.9 q=31.9 size=     512KiB time=00:00:02.40 bitrate=1747.8kbits/s speed=0.015x elapsed=0:02:39.55    \nframe=  146 fps=0.9 q=31.9 size=     512KiB time=00:00:02.40 bitrate=1747.8kbits/s speed=0.015x elapsed=0:02:40.16    \nframe=  146 fps=0.9 q=31.9 size=     512KiB time=00:00:02.40 bitrate=1747.8kbits/s speed=0.0149x elapsed=0:02:40.71    \nframe=  147 fps=0.9 q=32.2 size=     512KiB time=00:00:02.41 bitrate=1735.7kbits/s speed=0.015x elapsed=0:02:41.26    \nframe=  147 fps=0.9 q=32.2 size=     512KiB time=00:00:02.41 bitrate=1735.7kbits/s speed=0.0149x elapsed=0:02:41.79    \nframe=  147 fps=0.9 q=32.2 size=     512KiB time=00:00:02.41 bitrate=1735.7kbits/s speed=0.0149x elapsed=0:02:42.33    \nframe=  148 fps=0.9 q=26.3 size=     512KiB time=00:00:02.43 bitrate=1723.8kbits/s speed=0.0149x elapsed=0:02:42.85    \nframe=  148 fps=0.9 q=26.3 size=     512KiB time=00:00:02.43 bitrate=1723.8kbits/s speed=0.0149x elapsed=0:02:43.38    \nframe=  148 fps=0.9 q=26.3 size=     512KiB time=00:00:02.43 bitrate=1723.8kbits/s speed=0.0148x elapsed=0:02:43.90    \nframe=  150 fps=0.9 q=32.1 size=     512KiB time=00:00:02.46 bitrate=1700.5kbits/s speed=0.015x elapsed=0:02:44.41    \nframe=  151 fps=0.9 q=31.9 size=     512KiB time=00:00:02.48 bitrate=1689.1kbits/s speed=0.0151x elapsed=0:02:44.94    \nframe=  152 fps=0.9 q=32.3 size=     512KiB time=00:00:02.50 bitrate=1677.9kbits/s speed=0.0151x elapsed=0:02:45.46    \nframe=  152 fps=0.9 q=32.3 size=     512KiB time=00:00:02.50 bitrate=1677.9kbits/s speed=0.0151x elapsed=0:02:45.98    \nframe=  154 fps=0.9 q=30.5 size=     512KiB time=00:00:02.53 bitrate=1655.8kbits/s speed=0.0152x elapsed=0:02:46.52    \nframe=  154 fps=0.9 q=30.5 size=     512KiB time=00:00:02.53 bitrate=1655.8kbits/s speed=0.0152x elapsed=0:02:47.06    \nframe=  156 fps=0.9 q=32.9 size=     512KiB time=00:00:02.56 bitrate=1634.3kbits/s speed=0.0153x elapsed=0:02:47.60    \nframe=  156 fps=0.9 q=32.9 size=     512KiB time=00:00:02.56 bitrate=1634.3kbits/s speed=0.0153x elapsed=0:02:48.11    \nframe=  156 fps=0.9 q=32.9 size=     512KiB time=00:00:02.56 bitrate=1634.3kbits/s speed=0.0152x elapsed=0:02:48.66    \nframe=  157 fps=0.9 q=33.2 size=     512KiB time=00:00:02.58 bitrate=1623.7kbits/s speed=0.0153x elapsed=0:02:49.20    \nframe=  157 fps=0.9 q=33.2 size=     512KiB time=00:00:02.58 bitrate=1623.7kbits/s speed=0.0152x elapsed=0:02:49.72    \nframe=  157 fps=0.9 q=33.2 size=     512KiB time=00:00:02.58 bitrate=1623.7kbits/s speed=0.0152x elapsed=0:02:50.26    \nframe=  158 fps=0.9 q=27.2 size=     512KiB time=00:00:02.60 bitrate=1613.3kbits/s speed=0.0152x elapsed=0:02:50.77    \nframe=  158 fps=0.9 q=27.2 size=     512KiB time=00:00:02.60 bitrate=1613.3kbits/s speed=0.0152x elapsed=0:02:51.28    \nframe=  158 fps=0.9 q=27.2 size=     512KiB time=00:00:02.60 bitrate=1613.3kbits/s speed=0.0151x elapsed=0:02:51.81    \nframe=  158 fps=0.9 q=27.2 size=     512KiB time=00:00:02.60 bitrate=1613.3kbits/s speed=0.0151x elapsed=0:02:52.39    \nframe=  158 fps=0.9 q=27.2 size=     512KiB time=00:00:02.60 bitrate=1613.3kbits/s speed=0.015x elapsed=0:02:52.95    \nframe=  158 fps=0.9 q=27.2 size=     512KiB time=00:00:02.60 bitrate=1613.3kbits/s speed=0.015x elapsed=0:02:53.51    \nframe=  159 fps=0.9 q=31.7 size=     512KiB time=00:00:02.61 bitrate=1603.1kbits/s speed=0.015x elapsed=0:02:54.07    \nframe=  159 fps=0.9 q=31.7 size=     512KiB time=00:00:02.61 bitrate=1603.1kbits/s speed=0.015x elapsed=0:02:54.61    \nframe=  160 fps=0.9 q=32.9 size=     512KiB time=00:00:02.63 bitrate=1592.9kbits/s speed=0.015x elapsed=0:02:55.21    \nframe=  160 fps=0.9 q=32.9 size=     512KiB time=00:00:02.63 bitrate=1592.9kbits/s speed=0.015x elapsed=0:02:55.75    \nframe=  161 fps=0.9 q=33.0 size=     512KiB time=00:00:02.65 bitrate=1582.9kbits/s speed=0.015x elapsed=0:02:56.28    \nframe=  161 fps=0.9 q=33.0 size=     512KiB time=00:00:02.65 bitrate=1582.9kbits/s speed=0.015x elapsed=0:02:56.83    \nframe=  161 fps=0.9 q=33.0 size=     512KiB time=00:00:02.65 bitrate=1582.9kbits/s speed=0.0149x elapsed=0:02:57.36    \nframe=  161 fps=0.9 q=33.0 size=     512KiB time=00:00:02.65 bitrate=1582.9kbits/s speed=0.0149x elapsed=0:02:57.88    \nframe=  161 fps=0.9 q=33.0 size=     512KiB time=00:00:02.65 bitrate=1582.9kbits/s speed=0.0148x elapsed=0:02:58.45    \nframe=  162 fps=0.9 q=33.2 size=     512KiB time=00:00:02.66 bitrate=1573.0kbits/s speed=0.0149x elapsed=0:02:59.01    \nframe=  162 fps=0.9 q=33.2 size=     512KiB time=00:00:02.66 bitrate=1573.0kbits/s speed=0.0149x elapsed=0:02:59.54    \nframe=  162 fps=0.9 q=33.2 size=     512KiB time=00:00:02.66 bitrate=1573.0kbits/s speed=0.0148x elapsed=0:03:00.07    \nframe=  163 fps=0.9 q=27.1 size=     512KiB time=00:00:02.68 bitrate=1563.2kbits/s speed=0.0149x elapsed=0:03:00.59    \nframe=  163 fps=0.9 q=27.1 size=     512KiB time=00:00:02.68 bitrate=1563.2kbits/s speed=0.0148x elapsed=0:03:01.10    \nframe=  163 fps=0.9 q=27.1 size=     512KiB time=00:00:02.68 bitrate=1563.2kbits/s speed=0.0148x elapsed=0:03:01.63    \nframe=  163 fps=0.9 q=27.1 size=     512KiB time=00:00:02.68 bitrate=1563.2kbits/s speed=0.0147x elapsed=0:03:02.18    \nframe=  164 fps=0.9 q=30.4 size=     512KiB time=00:00:02.70 bitrate=1553.6kbits/s speed=0.0148x elapsed=0:03:02.72    \nframe=  164 fps=0.9 q=30.4 size=     512KiB time=00:00:02.70 bitrate=1553.6kbits/s speed=0.0147x elapsed=0:03:03.27    \nframe=  165 fps=0.9 q=33.0 size=     512KiB time=00:00:02.71 bitrate=1544.0kbits/s speed=0.0148x elapsed=0:03:03.80    \nframe=  165 fps=0.9 q=33.0 size=     512KiB time=00:00:02.71 bitrate=1544.0kbits/s speed=0.0147x elapsed=0:03:04.36    \nframe=  165 fps=0.9 q=33.0 size=     512KiB time=00:00:02.71 bitrate=1544.0kbits/s speed=0.0147x elapsed=0:03:04.93    \nframe=  165 fps=0.9 q=33.0 size=     512KiB time=00:00:02.71 bitrate=1544.0kbits/s speed=0.0146x elapsed=0:03:05.48    \nframe=  165 fps=0.9 q=33.0 size=     512KiB time=00:00:02.71 bitrate=1544.0kbits/s speed=0.0146x elapsed=0:03:06.01    \nframe=  166 fps=0.9 q=33.2 size=     512KiB time=00:00:02.73 bitrate=1534.6kbits/s speed=0.0147x elapsed=0:03:06.52    \nframe=  166 fps=0.9 q=33.2 size=     512KiB time=00:00:02.73 bitrate=1534.6kbits/s speed=0.0146x elapsed=0:03:07.05    \nframe=  166 fps=0.9 q=33.2 size=     512KiB time=00:00:02.73 bitrate=1534.6kbits/s speed=0.0146x elapsed=0:03:07.58    \nframe=  166 fps=0.9 q=33.2 size=     512KiB time=00:00:02.73 bitrate=1534.6kbits/s speed=0.0145x elapsed=0:03:08.10    \nframe=  167 fps=0.9 q=27.9 size=     512KiB time=00:00:02.75 bitrate=1525.3kbits/s speed=0.0146x elapsed=0:03:08.62    \nframe=  167 fps=0.9 q=27.9 size=     512KiB time=00:00:02.75 bitrate=1525.3kbits/s speed=0.0145x elapsed=0:03:09.17    \nframe=  167 fps=0.9 q=27.9 size=     512KiB time=00:00:02.75 bitrate=1525.3kbits/s speed=0.0145x elapsed=0:03:09.69    \nframe=  167 fps=0.9 q=27.9 size=     512KiB time=00:00:02.75 bitrate=1525.3kbits/s speed=0.0145x elapsed=0:03:10.21    \nframe=  167 fps=0.9 q=27.9 size=     512KiB time=00:00:02.75 bitrate=1525.3kbits/s speed=0.0144x elapsed=0:03:10.78    \nframe=  167 fps=0.9 q=27.9 size=     512KiB time=00:00:02.75 bitrate=1525.3kbits/s speed=0.0144x elapsed=0:03:11.36    \nframe=  167 fps=0.9 q=27.9 size=     512KiB time=00:00:02.75 bitrate=1525.3kbits/s speed=0.0143x elapsed=0:03:11.90    \nframe=  167 fps=0.9 q=27.9 size=     512KiB time=00:00:02.75 bitrate=1525.3kbits/s speed=0.0143x elapsed=0:03:12.47    \nframe=  168 fps=0.9 q=30.5 size=     512KiB time=00:00:02.76 bitrate=1516.1kbits/s speed=0.0143x elapsed=0:03:13.04    \nframe=  168 fps=0.9 q=30.5 size=     512KiB time=00:00:02.76 bitrate=1516.1kbits/s speed=0.0143x elapsed=0:03:13.59    \nframe=  169 fps=0.9 q=32.9 size=     512KiB time=00:00:02.78 bitrate=1507.1kbits/s speed=0.0143x elapsed=0:03:14.12    \nframe=  169 fps=0.9 q=32.9 size=     512KiB time=00:00:02.78 bitrate=1507.1kbits/s speed=0.0143x elapsed=0:03:14.70    \nframe=  169 fps=0.9 q=32.9 size=     512KiB time=00:00:02.78 bitrate=1507.1kbits/s speed=0.0142x elapsed=0:03:15.34    \nframe=  169 fps=0.9 q=32.9 size=     512KiB time=00:00:02.78 bitrate=1507.1kbits/s speed=0.0142x elapsed=0:03:15.91    \nframe=  169 fps=0.9 q=32.9 size=     512KiB time=00:00:02.78 bitrate=1507.1kbits/s speed=0.0142x elapsed=0:03:16.46    \nframe=  170 fps=0.9 q=33.2 size=     512KiB time=00:00:02.80 bitrate=1498.1kbits/s speed=0.0142x elapsed=0:03:17.03    \nframe=  170 fps=0.9 q=33.2 size=     512KiB time=00:00:02.80 bitrate=1498.1kbits/s speed=0.0142x elapsed=0:03:17.59    \nframe=  170 fps=0.9 q=33.2 size=     512KiB time=00:00:02.80 bitrate=1498.1kbits/s speed=0.0141x elapsed=0:03:18.14    \nframe=  171 fps=0.9 q=27.4 size=     512KiB time=00:00:02.81 bitrate=1489.2kbits/s speed=0.0142x elapsed=0:03:18.67    \nframe=  171 fps=0.9 q=27.4 size=     512KiB time=00:00:02.81 bitrate=1489.2kbits/s speed=0.0141x elapsed=0:03:19.20    \nframe=  171 fps=0.9 q=27.4 size=     512KiB time=00:00:02.81 bitrate=1489.2kbits/s speed=0.0141x elapsed=0:03:19.77    \nframe=  171 fps=0.9 q=27.4 size=     512KiB time=00:00:02.81 bitrate=1489.2kbits/s speed=0.0141x elapsed=0:03:20.32    \nframe=  171 fps=0.9 q=27.4 size=     512KiB time=00:00:02.81 bitrate=1489.2kbits/s speed=0.014x elapsed=0:03:20.86    \nframe=  171 fps=0.8 q=27.4 size=     512KiB time=00:00:02.81 bitrate=1489.2kbits/s speed=0.014x elapsed=0:03:21.42    \nframe=  172 fps=0.9 q=30.8 size=     512KiB time=00:00:02.83 bitrate=1480.5kbits/s speed=0.014x elapsed=0:03:21.96    \nframe=  172 fps=0.8 q=30.8 size=     512KiB time=00:00:02.83 bitrate=1480.5kbits/s speed=0.014x elapsed=0:03:22.48    \nframe=  172 fps=0.8 q=30.8 size=     512KiB time=00:00:02.83 bitrate=1480.5kbits/s speed=0.014x elapsed=0:03:23.04    \nframe=  172 fps=0.8 q=30.8 size=     512KiB time=00:00:02.83 bitrate=1480.5kbits/s speed=0.0139x elapsed=0:03:23.58    \nframe=  172 fps=0.8 q=30.8 size=     512KiB time=00:00:02.83 bitrate=1480.5kbits/s speed=0.0139x elapsed=0:03:24.11    \nframe=  173 fps=0.8 q=33.4 size=     512KiB time=00:00:02.85 bitrate=1471.8kbits/s speed=0.0139x elapsed=0:03:24.69    \nframe=  173 fps=0.8 q=33.4 size=     512KiB time=00:00:02.85 bitrate=1471.8kbits/s speed=0.0139x elapsed=0:03:25.23    \nframe=  175 fps=0.9 q=27.7 size=     512KiB time=00:00:02.88 bitrate=1454.8kbits/s speed=0.014x elapsed=0:03:25.76    \nframe=  176 fps=0.9 q=31.1 size=     512KiB time=00:00:02.90 bitrate=1446.4kbits/s speed=0.0141x elapsed=0:03:26.31    \nframe=  176 fps=0.9 q=31.1 size=     512KiB time=00:00:02.90 bitrate=1446.4kbits/s speed=0.014x elapsed=0:03:26.86    \nframe=  176 fps=0.8 q=31.1 size=     512KiB time=00:00:02.90 bitrate=1446.4kbits/s speed=0.014x elapsed=0:03:27.46    \nframe=  176 fps=0.8 q=31.1 size=     512KiB time=00:00:02.90 bitrate=1446.4kbits/s speed=0.0139x elapsed=0:03:28.04    \nframe=  176 fps=0.8 q=31.1 size=     512KiB time=00:00:02.90 bitrate=1446.4kbits/s speed=0.0139x elapsed=0:03:28.66    \nframe=  176 fps=0.8 q=31.1 size=     512KiB time=00:00:02.90 bitrate=1446.4kbits/s speed=0.0139x elapsed=0:03:29.21    \nframe=  176 fps=0.8 q=31.1 size=     512KiB time=00:00:02.90 bitrate=1446.4kbits/s speed=0.0138x elapsed=0:03:29.78    \nframe=  176 fps=0.8 q=31.1 size=     512KiB time=00:00:02.90 bitrate=1446.4kbits/s speed=0.0138x elapsed=0:03:30.33    \nframe=  176 fps=0.8 q=31.1 size=     512KiB time=00:00:02.90 bitrate=1446.4kbits/s speed=0.0138x elapsed=0:03:30.86    \nframe=  176 fps=0.8 q=31.1 size=     512KiB time=00:00:02.90 bitrate=1446.4kbits/s speed=0.0137x elapsed=0:03:31.40    \nframe=  176 fps=0.8 q=31.1 size=     512KiB time=00:00:02.90 bitrate=1446.4kbits/s speed=0.0137x elapsed=0:03:31.99    \nframe=  176 fps=0.8 q=31.1 size=     512KiB time=00:00:02.90 bitrate=1446.4kbits/s speed=0.0136x elapsed=0:03:32.57    \nframe=  176 fps=0.8 q=31.1 size=     512KiB time=00:00:02.90 bitrate=1446.4kbits/s speed=0.0136x elapsed=0:03:33.18    \nframe=  176 fps=0.8 q=31.1 size=     512KiB time=00:00:02.90 bitrate=1446.4kbits/s speed=0.0136x elapsed=0:03:33.79    \nframe=  177 fps=0.8 q=33.5 size=     512KiB time=00:00:02.91 bitrate=1438.2kbits/s speed=0.0136x elapsed=0:03:34.44    \nframe=  178 fps=0.8 q=33.7 size=     512KiB time=00:00:02.93 bitrate=1430.0kbits/s speed=0.0136x elapsed=0:03:35.10    \nframe=  178 fps=0.8 q=33.7 size=     512KiB time=00:00:02.93 bitrate=1430.0kbits/s speed=0.0136x elapsed=0:03:35.67    \nframe=  178 fps=0.8 q=33.7 size=     512KiB time=00:00:02.93 bitrate=1430.0kbits/s speed=0.0136x elapsed=0:03:36.29    \nframe=  178 fps=0.8 q=33.7 size=     512KiB time=00:00:02.93 bitrate=1430.0kbits/s speed=0.0135x elapsed=0:03:36.82    \nframe=  178 fps=0.8 q=33.7 size=     512KiB time=00:00:02.93 bitrate=1430.0kbits/s speed=0.0135x elapsed=0:03:37.37    \nframe=  178 fps=0.8 q=33.7 size=     512KiB time=00:00:02.93 bitrate=1430.0kbits/s speed=0.0135x elapsed=0:03:37.89    \nframe=  179 fps=0.8 q=28.2 size=     512KiB time=00:00:02.95 bitrate=1421.9kbits/s speed=0.0135x elapsed=0:03:38.45    \nframe=  179 fps=0.8 q=28.2 size=     512KiB time=00:00:02.95 bitrate=1421.9kbits/s speed=0.0135x elapsed=0:03:39.00    \nframe=  180 fps=0.8 q=30.9 size=     512KiB time=00:00:02.96 bitrate=1413.9kbits/s speed=0.0135x elapsed=0:03:39.54    \nframe=  180 fps=0.8 q=30.9 size=     512KiB time=00:00:02.96 bitrate=1413.9kbits/s speed=0.0135x elapsed=0:03:40.08    \nframe=  180 fps=0.8 q=30.9 size=     512KiB time=00:00:02.96 bitrate=1413.9kbits/s speed=0.0134x elapsed=0:03:40.60    \nframe=  181 fps=0.8 q=33.6 size=     512KiB time=00:00:02.98 bitrate=1406.0kbits/s speed=0.0135x elapsed=0:03:41.12    \nframe=  181 fps=0.8 q=33.6 size=     512KiB time=00:00:02.98 bitrate=1406.0kbits/s speed=0.0135x elapsed=0:03:41.67    \nframe=  181 fps=0.8 q=33.6 size=     512KiB time=00:00:02.98 bitrate=1406.0kbits/s speed=0.0134x elapsed=0:03:42.21    \nframe=  181 fps=0.8 q=33.6 size=     512KiB time=00:00:02.98 bitrate=1406.0kbits/s speed=0.0134x elapsed=0:03:42.72    \nframe=  182 fps=0.8 q=33.7 size=     512KiB time=00:00:03.00 bitrate=1398.2kbits/s speed=0.0134x elapsed=0:03:43.25    \nframe=  182 fps=0.8 q=33.7 size=     512KiB time=00:00:03.00 bitrate=1398.2kbits/s speed=0.0134x elapsed=0:03:43.81    \nframe=  184 fps=0.8 q=31.4 size=     512KiB time=00:00:03.03 bitrate=1382.9kbits/s speed=0.0135x elapsed=0:03:44.35    \nframe=  184 fps=0.8 q=31.4 size=     512KiB time=00:00:03.03 bitrate=1382.9kbits/s speed=0.0135x elapsed=0:03:44.89    \nframe=  184 fps=0.8 q=31.4 size=     512KiB time=00:00:03.03 bitrate=1382.9kbits/s speed=0.0135x elapsed=0:03:45.40    \nframe=  186 fps=0.8 q=33.9 size=     768KiB time=00:00:03.06 bitrate=2051.7kbits/s speed=0.0136x elapsed=0:03:45.97    \nframe=  186 fps=0.8 q=33.9 size=     768KiB time=00:00:03.06 bitrate=2051.7kbits/s speed=0.0135x elapsed=0:03:46.55    \nframe=  186 fps=0.8 q=33.9 size=     768KiB time=00:00:03.06 bitrate=2051.7kbits/s speed=0.0135x elapsed=0:03:47.09    \nframe=  186 fps=0.8 q=33.9 size=     768KiB time=00:00:03.06 bitrate=2051.7kbits/s speed=0.0135x elapsed=0:03:47.61    \nframe=  186 fps=0.8 q=33.9 size=     768KiB time=00:00:03.06 bitrate=2051.7kbits/s speed=0.0134x elapsed=0:03:48.16    \nframe=  186 fps=0.8 q=33.9 size=     768KiB time=00:00:03.06 bitrate=2051.7kbits/s speed=0.0134x elapsed=0:03:48.69    \nframe=  187 fps=0.8 q=27.8 size=     768KiB time=00:00:03.08 bitrate=2040.6kbits/s speed=0.0135x elapsed=0:03:49.21    \nframe=  187 fps=0.8 q=27.8 size=     768KiB time=00:00:03.08 bitrate=2040.6kbits/s speed=0.0134x elapsed=0:03:49.72    \nframe=  187 fps=0.8 q=27.8 size=     768KiB time=00:00:03.08 bitrate=2040.6kbits/s speed=0.0134x elapsed=0:03:50.25    \nframe=  187 fps=0.8 q=27.8 size=     768KiB time=00:00:03.08 bitrate=2040.6kbits/s speed=0.0134x elapsed=0:03:50.79    \nframe=  187 fps=0.8 q=27.8 size=     768KiB time=00:00:03.08 bitrate=2040.6kbits/s speed=0.0133x elapsed=0:03:51.33    \nframe=  187 fps=0.8 q=27.8 size=     768KiB time=00:00:03.08 bitrate=2040.6kbits/s speed=0.0133x elapsed=0:03:51.91    \nframe=  187 fps=0.8 q=27.8 size=     768KiB time=00:00:03.08 bitrate=2040.6kbits/s speed=0.0133x elapsed=0:03:52.44    \nframe=  187 fps=0.8 q=27.8 size=     768KiB time=00:00:03.08 bitrate=2040.6kbits/s speed=0.0132x elapsed=0:03:52.97    \nframe=  188 fps=0.8 q=31.4 size=     768KiB time=00:00:03.10 bitrate=2029.6kbits/s speed=0.0133x elapsed=0:03:53.51    \nframe=  189 fps=0.8 q=34.0 size=     768KiB time=00:00:03.11 bitrate=2018.8kbits/s speed=0.0133x elapsed=0:03:54.06    \nframe=  190 fps=0.8 q=34.2 size=     768KiB time=00:00:03.13 bitrate=2008.0kbits/s speed=0.0134x elapsed=0:03:54.63    \nframe=  190 fps=0.8 q=34.2 size=     768KiB time=00:00:03.13 bitrate=2008.0kbits/s speed=0.0133x elapsed=0:03:55.19    \nframe=  190 fps=0.8 q=34.2 size=     768KiB time=00:00:03.13 bitrate=2008.0kbits/s speed=0.0133x elapsed=0:03:55.74    \nframe=  190 fps=0.8 q=34.2 size=     768KiB time=00:00:03.13 bitrate=2008.0kbits/s speed=0.0133x elapsed=0:03:56.27    \nframe=  190 fps=0.8 q=34.2 size=     768KiB time=00:00:03.13 bitrate=2008.0kbits/s speed=0.0132x elapsed=0:03:56.85    \nframe=  190 fps=0.8 q=34.2 size=     768KiB time=00:00:03.13 bitrate=2008.0kbits/s speed=0.0132x elapsed=0:03:57.38    \nframe=  191 fps=0.8 q=28.1 size=     768KiB time=00:00:03.15 bitrate=1997.4kbits/s speed=0.0132x elapsed=0:03:57.93    \nframe=  193 fps=0.8 q=34.2 size=     768KiB time=00:00:03.18 bitrate=1976.5kbits/s speed=0.0133x elapsed=0:03:58.45    \nframe=  193 fps=0.8 q=34.2 size=     768KiB time=00:00:03.18 bitrate=1976.5kbits/s speed=0.0133x elapsed=0:03:58.96    \nframe=  193 fps=0.8 q=34.2 size=     768KiB time=00:00:03.18 bitrate=1976.5kbits/s speed=0.0133x elapsed=0:03:59.50    \nframe=  193 fps=0.8 q=34.2 size=     768KiB time=00:00:03.18 bitrate=1976.5kbits/s speed=0.0133x elapsed=0:04:00.03    \nframe=  194 fps=0.8 q=34.8 size=     768KiB time=00:00:03.20 bitrate=1966.2kbits/s speed=0.0133x elapsed=0:04:00.57    \nframe=  194 fps=0.8 q=34.8 size=     768KiB time=00:00:03.20 bitrate=1966.2kbits/s speed=0.0133x elapsed=0:04:01.10    \nframe=  195 fps=0.8 q=29.1 size=     768KiB time=00:00:03.21 bitrate=1956.0kbits/s speed=0.0133x elapsed=0:04:01.63    \nframe=  195 fps=0.8 q=29.1 size=     768KiB time=00:00:03.21 bitrate=1956.0kbits/s speed=0.0133x elapsed=0:04:02.15    \nframe=  195 fps=0.8 q=29.1 size=     768KiB time=00:00:03.21 bitrate=1956.0kbits/s speed=0.0133x elapsed=0:04:02.66    \nframe=  195 fps=0.8 q=29.1 size=     768KiB time=00:00:03.21 bitrate=1956.0kbits/s speed=0.0132x elapsed=0:04:03.21    \nframe=  195 fps=0.8 q=29.1 size=     768KiB time=00:00:03.21 bitrate=1956.0kbits/s speed=0.0132x elapsed=0:04:03.77    \nframe=  195 fps=0.8 q=29.1 size=     768KiB time=00:00:03.21 bitrate=1956.0kbits/s speed=0.0132x elapsed=0:04:04.30    \nframe=  196 fps=0.8 q=31.7 size=     768KiB time=00:00:03.23 bitrate=1945.9kbits/s speed=0.0132x elapsed=0:04:04.84    \nframe=  196 fps=0.8 q=31.7 size=     768KiB time=00:00:03.23 bitrate=1945.9kbits/s speed=0.0132x elapsed=0:04:05.35    \nframe=  196 fps=0.8 q=31.7 size=     768KiB time=00:00:03.23 bitrate=1945.9kbits/s speed=0.0132x elapsed=0:04:05.87    \nframe=  196 fps=0.8 q=31.7 size=     768KiB time=00:00:03.23 bitrate=1945.9kbits/s speed=0.0131x elapsed=0:04:06.41    \nframe=  198 fps=0.8 q=34.9 size=     768KiB time=00:00:03.26 bitrate=1926.1kbits/s speed=0.0132x elapsed=0:04:06.93    \nframe=  198 fps=0.8 q=34.9 size=     768KiB time=00:00:03.26 bitrate=1926.1kbits/s speed=0.0132x elapsed=0:04:07.50    \nframe=  198 fps=0.8 q=34.9 size=     768KiB time=00:00:03.26 bitrate=1926.1kbits/s speed=0.0132x elapsed=0:04:08.03    \nframe=  198 fps=0.8 q=34.9 size=     768KiB time=00:00:03.26 bitrate=1926.1kbits/s speed=0.0131x elapsed=0:04:08.56    \nframe=  199 fps=0.8 q=28.4 size=     768KiB time=00:00:03.28 bitrate=1916.3kbits/s speed=0.0132x elapsed=0:04:09.11    \nframe=  199 fps=0.8 q=28.4 size=     768KiB time=00:00:03.28 bitrate=1916.3kbits/s speed=0.0132x elapsed=0:04:09.66    \nframe=  199 fps=0.8 q=28.4 size=     768KiB time=00:00:03.28 bitrate=1916.3kbits/s speed=0.0131x elapsed=0:04:10.22    \nframe=  199 fps=0.8 q=28.4 size=     768KiB time=00:00:03.28 bitrate=1916.3kbits/s speed=0.0131x elapsed=0:04:10.76    \nframe=  200 fps=0.8 q=31.9 size=     768KiB time=00:00:03.30 bitrate=1906.6kbits/s speed=0.0131x elapsed=0:04:11.29    \nframe=  200 fps=0.8 q=31.9 size=     768KiB time=00:00:03.30 bitrate=1906.6kbits/s speed=0.0131x elapsed=0:04:11.84    \nframe=  200 fps=0.8 q=31.9 size=     768KiB time=00:00:03.30 bitrate=1906.6kbits/s speed=0.0131x elapsed=0:04:12.38    \nframe=  201 fps=0.8 q=34.7 size=     768KiB time=00:00:03.31 bitrate=1897.0kbits/s speed=0.0131x elapsed=0:04:12.92    \nframe=  202 fps=0.8 q=34.9 size=     768KiB time=00:00:03.33 bitrate=1887.5kbits/s speed=0.0132x elapsed=0:04:13.46    \nframe=  202 fps=0.8 q=34.9 size=     768KiB time=00:00:03.33 bitrate=1887.5kbits/s speed=0.0131x elapsed=0:04:13.97    \nframe=  202 fps=0.8 q=34.9 size=     768KiB time=00:00:03.33 bitrate=1887.5kbits/s speed=0.0131x elapsed=0:04:14.50    \nframe=  202 fps=0.8 q=34.9 size=     768KiB time=00:00:03.33 bitrate=1887.5kbits/s speed=0.0131x elapsed=0:04:15.06    \nframe=  203 fps=0.8 q=28.7 size=     768KiB time=00:00:03.35 bitrate=1878.2kbits/s speed=0.0131x elapsed=0:04:15.62    \nframe=  203 fps=0.8 q=28.7 size=     768KiB time=00:00:03.35 bitrate=1878.2kbits/s speed=0.0131x elapsed=0:04:16.13    \nframe=  204 fps=0.8 q=31.7 size=     768KiB time=00:00:03.36 bitrate=1868.9kbits/s speed=0.0131x elapsed=0:04:16.64    \nframe=  204 fps=0.8 q=31.7 size=     768KiB time=00:00:03.36 bitrate=1868.9kbits/s speed=0.0131x elapsed=0:04:17.16    \nframe=  204 fps=0.8 q=31.7 size=     768KiB time=00:00:03.36 bitrate=1868.9kbits/s speed=0.0131x elapsed=0:04:17.68    \nframe=  205 fps=0.8 q=35.1 size=     768KiB time=00:00:03.38 bitrate=1859.6kbits/s speed=0.0131x elapsed=0:04:18.22    \nframe=  205 fps=0.8 q=35.1 size=     768KiB time=00:00:03.38 bitrate=1859.6kbits/s speed=0.0131x elapsed=0:04:18.74    \nframe=  205 fps=0.8 q=35.1 size=     768KiB time=00:00:03.38 bitrate=1859.6kbits/s speed=0.013x elapsed=0:04:19.27    \nframe=  206 fps=0.8 q=34.9 size=     768KiB time=00:00:03.40 bitrate=1850.5kbits/s speed=0.0131x elapsed=0:04:19.78    \nframe=  206 fps=0.8 q=34.9 size=     768KiB time=00:00:03.40 bitrate=1850.5kbits/s speed=0.0131x elapsed=0:04:20.31    \nframe=  206 fps=0.8 q=34.9 size=     768KiB time=00:00:03.40 bitrate=1850.5kbits/s speed=0.013x elapsed=0:04:20.82    \nframe=  207 fps=0.8 q=28.8 size=     768KiB time=00:00:03.41 bitrate=1841.5kbits/s speed=0.0131x elapsed=0:04:21.34    \nframe=  208 fps=0.8 q=31.4 size=     768KiB time=00:00:03.43 bitrate=1832.6kbits/s speed=0.0131x elapsed=0:04:21.87    \nframe=  208 fps=0.8 q=31.4 size=     768KiB time=00:00:03.43 bitrate=1832.6kbits/s speed=0.0131x elapsed=0:04:22.43    \nframe=  208 fps=0.8 q=31.4 size=     768KiB time=00:00:03.43 bitrate=1832.6kbits/s speed=0.0131x elapsed=0:04:22.97    \nframe=  211 fps=0.8 q=28.4 size=     768KiB time=00:00:03.48 bitrate=1806.3kbits/s speed=0.0132x elapsed=0:04:23.49    \nframe=  211 fps=0.8 q=28.4 size=     768KiB time=00:00:03.48 bitrate=1806.3kbits/s speed=0.0132x elapsed=0:04:24.04    \nframe=  211 fps=0.8 q=28.4 size=     768KiB time=00:00:03.48 bitrate=1806.3kbits/s speed=0.0132x elapsed=0:04:24.58    \nframe=  213 fps=0.8 q=34.4 size=     768KiB time=00:00:03.51 bitrate=1789.1kbits/s speed=0.0133x elapsed=0:04:25.12    \nframe=  213 fps=0.8 q=34.4 size=     768KiB time=00:00:03.51 bitrate=1789.1kbits/s speed=0.0132x elapsed=0:04:25.64    \nframe=  213 fps=0.8 q=34.4 size=     768KiB time=00:00:03.51 bitrate=1789.1kbits/s speed=0.0132x elapsed=0:04:26.19    \nframe=  213 fps=0.8 q=34.4 size=     768KiB time=00:00:03.51 bitrate=1789.1kbits/s speed=0.0132x elapsed=0:04:26.71    \nframe=  214 fps=0.8 q=34.7 size=     768KiB time=00:00:03.53 bitrate=1780.7kbits/s speed=0.0132x elapsed=0:04:27.25    \nframe=  214 fps=0.8 q=34.7 size=     768KiB time=00:00:03.53 bitrate=1780.7kbits/s speed=0.0132x elapsed=0:04:27.82    \nframe=  214 fps=0.8 q=34.7 size=     768KiB time=00:00:03.53 bitrate=1780.7kbits/s speed=0.0132x elapsed=0:04:28.35    \nframe=  214 fps=0.8 q=34.7 size=     768KiB time=00:00:03.53 bitrate=1780.7kbits/s speed=0.0131x elapsed=0:04:28.89    \nframe=  214 fps=0.8 q=34.7 size=     768KiB time=00:00:03.53 bitrate=1780.7kbits/s speed=0.0131x elapsed=0:04:29.43    \nframe=  214 fps=0.8 q=34.7 size=     768KiB time=00:00:03.53 bitrate=1780.7kbits/s speed=0.0131x elapsed=0:04:30.04    \nframe=  214 fps=0.8 q=34.7 size=     768KiB time=00:00:03.53 bitrate=1780.7kbits/s speed=0.0131x elapsed=0:04:30.67    \nframe=  214 fps=0.8 q=34.7 size=     768KiB time=00:00:03.53 bitrate=1780.7kbits/s speed=0.013x elapsed=0:04:31.24    \nframe=  214 fps=0.8 q=34.7 size=     768KiB time=00:00:03.53 bitrate=1780.7kbits/s speed=0.013x elapsed=0:04:31.85    \nframe=  215 fps=0.8 q=28.5 size=     768KiB time=00:00:03.55 bitrate=1772.3kbits/s speed=0.013x elapsed=0:04:32.40    \nframe=  216 fps=0.8 q=31.7 size=     768KiB time=00:00:03.56 bitrate=1764.1kbits/s speed=0.0131x elapsed=0:04:32.93    \nframe=  217 fps=0.8 q=34.3 size=     768KiB time=00:00:03.58 bitrate=1755.9kbits/s speed=0.0131x elapsed=0:04:33.48    \nframe=  217 fps=0.8 q=34.3 size=     768KiB time=00:00:03.58 bitrate=1755.9kbits/s speed=0.0131x elapsed=0:04:34.01    \nframe=  217 fps=0.8 q=34.3 size=     768KiB time=00:00:03.58 bitrate=1755.9kbits/s speed=0.0131x elapsed=0:04:34.56    \nframe=  217 fps=0.8 q=34.3 size=     768KiB time=00:00:03.58 bitrate=1755.9kbits/s speed=0.013x elapsed=0:04:35.09    \nframe=  218 fps=0.8 q=34.6 size=     768KiB time=00:00:03.60 bitrate=1747.7kbits/s speed=0.0131x elapsed=0:04:35.63    \nframe=  219 fps=0.8 q=28.6 size=     768KiB time=00:00:03.61 bitrate=1739.7kbits/s speed=0.0131x elapsed=0:04:36.16    \nframe=  220 fps=0.8 q=31.5 size=     768KiB time=00:00:03.63 bitrate=1731.7kbits/s speed=0.0131x elapsed=0:04:36.68    \nframe=  221 fps=0.8 q=34.6 size=     768KiB time=00:00:03.65 bitrate=1723.8kbits/s speed=0.0132x elapsed=0:04:37.19    \nframe=  221 fps=0.8 q=34.6 size=     768KiB time=00:00:03.65 bitrate=1723.8kbits/s speed=0.0131x elapsed=0:04:37.72    \nframe=  222 fps=0.8 q=34.5 size=     768KiB time=00:00:03.66 bitrate=1715.9kbits/s speed=0.0132x elapsed=0:04:38.26    \nframe=  222 fps=0.8 q=34.5 size=     768KiB time=00:00:03.66 bitrate=1715.9kbits/s speed=0.0132x elapsed=0:04:38.78    \nframe=  223 fps=0.8 q=28.6 size=     768KiB time=00:00:03.68 bitrate=1708.2kbits/s speed=0.0132x elapsed=0:04:39.29    \nframe=  224 fps=0.8 q=31.8 size=     768KiB time=00:00:03.70 bitrate=1700.5kbits/s speed=0.0132x elapsed=0:04:39.82    \nframe=  224 fps=0.8 q=31.8 size=     768KiB time=00:00:03.70 bitrate=1700.5kbits/s speed=0.0132x elapsed=0:04:40.33    \nframe=  225 fps=0.8 q=34.7 size=     768KiB time=00:00:03.71 bitrate=1692.9kbits/s speed=0.0132x elapsed=0:04:40.85    \nframe=  225 fps=0.8 q=34.7 size=     768KiB time=00:00:03.71 bitrate=1692.9kbits/s speed=0.0132x elapsed=0:04:41.38    \nframe=  226 fps=0.8 q=34.6 size=     768KiB time=00:00:03.73 bitrate=1685.3kbits/s speed=0.0132x elapsed=0:04:41.93    \nframe=  227 fps=0.8 q=29.1 size=     768KiB time=00:00:03.75 bitrate=1677.8kbits/s speed=0.0133x elapsed=0:04:42.44    \nframe=  228 fps=0.8 q=31.8 size=     768KiB time=00:00:03.76 bitrate=1670.4kbits/s speed=0.0133x elapsed=0:04:42.98    \nframe=  228 fps=0.8 q=31.8 size=     768KiB time=00:00:03.76 bitrate=1670.4kbits/s speed=0.0133x elapsed=0:04:43.49    \nframe=  229 fps=0.8 q=34.5 size=     768KiB time=00:00:03.78 bitrate=1663.0kbits/s speed=0.0133x elapsed=0:04:44.01    \nframe=  229 fps=0.8 q=34.5 size=     768KiB time=00:00:03.78 bitrate=1663.0kbits/s speed=0.0133x elapsed=0:04:44.55    \nframe=  230 fps=0.8 q=34.5 size=     768KiB time=00:00:03.80 bitrate=1655.7kbits/s speed=0.0133x elapsed=0:04:45.06    \nframe=  231 fps=0.8 q=28.9 size=     768KiB time=00:00:03.81 bitrate=1648.5kbits/s speed=0.0134x elapsed=0:04:45.59    \nframe=  231 fps=0.8 q=28.9 size=     768KiB time=00:00:03.81 bitrate=1648.5kbits/s speed=0.0133x elapsed=0:04:46.10    \nframe=  232 fps=0.8 q=31.5 size=     768KiB time=00:00:03.83 bitrate=1641.3kbits/s speed=0.0134x elapsed=0:04:46.65    \nframe=  233 fps=0.8 q=34.5 size=     768KiB time=00:00:03.85 bitrate=1634.2kbits/s speed=0.0134x elapsed=0:04:47.19    \nframe=  234 fps=0.8 q=34.6 size=     768KiB time=00:00:03.86 bitrate=1627.2kbits/s speed=0.0134x elapsed=0:04:47.71    \nframe=  235 fps=0.8 q=28.7 size=     768KiB time=00:00:03.88 bitrate=1620.2kbits/s speed=0.0135x elapsed=0:04:48.24    \nframe=  235 fps=0.8 q=28.7 size=     768KiB time=00:00:03.88 bitrate=1620.2kbits/s speed=0.0134x elapsed=0:04:48.78    \nframe=  236 fps=0.8 q=32.1 size=     768KiB time=00:00:03.90 bitrate=1613.3kbits/s speed=0.0135x elapsed=0:04:49.30    \nframe=  236 fps=0.8 q=32.1 size=     768KiB time=00:00:03.90 bitrate=1613.3kbits/s speed=0.0135x elapsed=0:04:49.83    \nframe=  237 fps=0.8 q=34.0 size=     768KiB time=00:00:03.91 bitrate=1606.4kbits/s speed=0.0135x elapsed=0:04:50.34    \nframe=  238 fps=0.8 q=33.9 size=     768KiB time=00:00:03.93 bitrate=1599.6kbits/s speed=0.0135x elapsed=0:04:50.86    \nframe=  238 fps=0.8 q=33.9 size=     768KiB time=00:00:03.93 bitrate=1599.6kbits/s speed=0.0135x elapsed=0:04:51.37    \nframe=  238 fps=0.8 q=33.9 size=     768KiB time=00:00:03.93 bitrate=1599.6kbits/s speed=0.0135x elapsed=0:04:51.90    \nframe=  238 fps=0.8 q=33.9 size=     768KiB time=00:00:03.93 bitrate=1599.6kbits/s speed=0.0134x elapsed=0:04:52.45    \nframe=  240 fps=0.8 q=32.0 size=     768KiB time=00:00:03.96 bitrate=1586.2kbits/s speed=0.0135x elapsed=0:04:52.95    \nframe=  241 fps=0.8 q=33.8 size=     768KiB time=00:00:03.98 bitrate=1579.5kbits/s speed=0.0136x elapsed=0:04:53.48    \nframe=  241 fps=0.8 q=33.8 size=     768KiB time=00:00:03.98 bitrate=1579.5kbits/s speed=0.0135x elapsed=0:04:54.01    \nframe=  242 fps=0.8 q=34.1 size=     768KiB time=00:00:04.00 bitrate=1573.0kbits/s speed=0.0136x elapsed=0:04:54.55    \nframe=  242 fps=0.8 q=34.1 size=     768KiB time=00:00:04.00 bitrate=1573.0kbits/s speed=0.0136x elapsed=0:04:55.07    \nframe=  242 fps=0.8 q=34.1 size=     768KiB time=00:00:04.00 bitrate=1573.0kbits/s speed=0.0135x elapsed=0:04:55.58    \nframe=  243 fps=0.8 q=29.2 size=     768KiB time=00:00:04.01 bitrate=1566.4kbits/s speed=0.0136x elapsed=0:04:56.11    \nframe=  244 fps=0.8 q=31.8 size=     768KiB time=00:00:04.03 bitrate=1560.0kbits/s speed=0.0136x elapsed=0:04:56.63    \nframe=  245 fps=0.8 q=33.9 size=     768KiB time=00:00:04.05 bitrate=1553.5kbits/s speed=0.0136x elapsed=0:04:57.15    \nframe=  245 fps=0.8 q=33.9 size=     768KiB time=00:00:04.05 bitrate=1553.5kbits/s speed=0.0136x elapsed=0:04:57.67    \nframe=  245 fps=0.8 q=33.9 size=     768KiB time=00:00:04.05 bitrate=1553.5kbits/s speed=0.0136x elapsed=0:04:58.20    \nframe=  246 fps=0.8 q=33.9 size=     768KiB time=00:00:04.06 bitrate=1547.2kbits/s speed=0.0136x elapsed=0:04:58.74    \nframe=  247 fps=0.8 q=29.4 size=     768KiB time=00:00:04.08 bitrate=1540.9kbits/s speed=0.0136x elapsed=0:04:59.25    \nframe=  248 fps=0.8 q=32.0 size=     768KiB time=00:00:04.10 bitrate=1534.6kbits/s speed=0.0137x elapsed=0:04:59.77    \nframe=  248 fps=0.8 q=32.0 size=     768KiB time=00:00:04.10 bitrate=1534.6kbits/s speed=0.0137x elapsed=0:05:00.32    \nframe=  248 fps=0.8 q=32.0 size=     768KiB time=00:00:04.10 bitrate=1534.6kbits/s speed=0.0136x elapsed=0:05:00.87    \nframe=  248 fps=0.8 q=32.0 size=     768KiB time=00:00:04.10 bitrate=1534.6kbits/s speed=0.0136x elapsed=0:05:01.40    \nframe=  250 fps=0.8 q=34.0 size=    1024KiB time=00:00:04.13 bitrate=2029.6kbits/s speed=0.0137x elapsed=0:05:01.91    \nframe=  251 fps=0.8 q=24.9 size=    1024KiB time=00:00:04.15 bitrate=2021.4kbits/s speed=0.0137x elapsed=0:05:02.43    \nframe=  252 fps=0.8 q=27.9 size=    1024KiB time=00:00:04.16 bitrate=2013.4kbits/s speed=0.0138x elapsed=0:05:02.94    \nframe=  253 fps=0.8 q=31.3 size=    1024KiB time=00:00:04.18 bitrate=2005.3kbits/s speed=0.0138x elapsed=0:05:03.47    \nframe=  254 fps=0.8 q=34.0 size=    1024KiB time=00:00:04.20 bitrate=1997.4kbits/s speed=0.0138x elapsed=0:05:03.99    \nframe=  255 fps=0.8 q=34.0 size=    1024KiB time=00:00:04.21 bitrate=1989.5kbits/s speed=0.0138x elapsed=0:05:04.51    \nframe=  256 fps=0.8 q=28.7 size=    1024KiB time=00:00:04.23 bitrate=1981.6kbits/s speed=0.0139x elapsed=0:05:05.02    \nframe=  256 fps=0.8 q=28.7 size=    1024KiB time=00:00:04.23 bitrate=1981.6kbits/s speed=0.0139x elapsed=0:05:05.53    \nframe=  257 fps=0.8 q=30.9 size=    1024KiB time=00:00:04.25 bitrate=1973.9kbits/s speed=0.0139x elapsed=0:05:06.07    \nframe=  258 fps=0.8 q=34.1 size=    1024KiB time=00:00:04.26 bitrate=1966.2kbits/s speed=0.0139x elapsed=0:05:06.63    \nframe=  258 fps=0.8 q=34.1 size=    1024KiB time=00:00:04.26 bitrate=1966.2kbits/s speed=0.0139x elapsed=0:05:07.16    \nframe=  259 fps=0.8 q=34.0 size=    1024KiB time=00:00:04.28 bitrate=1958.5kbits/s speed=0.0139x elapsed=0:05:07.70    \nframe=  259 fps=0.8 q=34.0 size=    1024KiB time=00:00:04.28 bitrate=1958.5kbits/s speed=0.0139x elapsed=0:05:08.22    \nframe=  259 fps=0.8 q=34.0 size=    1024KiB time=00:00:04.28 bitrate=1958.5kbits/s speed=0.0139x elapsed=0:05:08.74    \nframe=  260 fps=0.8 q=34.3 size=    1024KiB time=00:00:04.30 bitrate=1950.9kbits/s speed=0.0139x elapsed=0:05:09.28    \nframe=  260 fps=0.8 q=34.3 size=    1024KiB time=00:00:04.30 bitrate=1950.9kbits/s speed=0.0139x elapsed=0:05:09.85    \nframe=  260 fps=0.8 q=34.3 size=    1024KiB time=00:00:04.30 bitrate=1950.9kbits/s speed=0.0139x elapsed=0:05:10.43    \nframe=  260 fps=0.8 q=34.3 size=    1024KiB time=00:00:04.30 bitrate=1950.9kbits/s speed=0.0138x elapsed=0:05:10.99    \nframe=  260 fps=0.8 q=34.3 size=    1024KiB time=00:00:04.30 bitrate=1950.9kbits/s speed=0.0138x elapsed=0:05:11.50    \nframe=  260 fps=0.8 q=34.3 size=    1024KiB time=00:00:04.30 bitrate=1950.9kbits/s speed=0.0138x elapsed=0:05:12.04    \nframe=  261 fps=0.8 q=28.2 size=    1024KiB time=00:00:04.31 bitrate=1943.4kbits/s speed=0.0138x elapsed=0:05:12.58    \nframe=  261 fps=0.8 q=28.2 size=    1024KiB time=00:00:04.31 bitrate=1943.4kbits/s speed=0.0138x elapsed=0:05:13.14    \nframe=  261 fps=0.8 q=28.2 size=    1024KiB time=00:00:04.31 bitrate=1943.4kbits/s speed=0.0138x elapsed=0:05:13.70    \nframe=  261 fps=0.8 q=28.2 size=    1024KiB time=00:00:04.31 bitrate=1943.4kbits/s speed=0.0137x elapsed=0:05:14.29    \nframe=  262 fps=0.8 q=30.6 size=    1024KiB time=00:00:04.33 bitrate=1935.9kbits/s speed=0.0138x elapsed=0:05:14.82    \nframe=  262 fps=0.8 q=30.6 size=    1024KiB time=00:00:04.33 bitrate=1935.9kbits/s speed=0.0137x elapsed=0:05:15.37    \nframe=  262 fps=0.8 q=30.6 size=    1024KiB time=00:00:04.33 bitrate=1935.9kbits/s speed=0.0137x elapsed=0:05:15.92    \nframe=  263 fps=0.8 q=33.9 size=    1024KiB time=00:00:04.35 bitrate=1928.5kbits/s speed=0.0137x elapsed=0:05:16.47    \nframe=  263 fps=0.8 q=33.9 size=    1024KiB time=00:00:04.35 bitrate=1928.5kbits/s speed=0.0137x elapsed=0:05:17.01    \nframe=  264 fps=0.8 q=33.7 size=    1024KiB time=00:00:04.36 bitrate=1921.1kbits/s speed=0.0138x elapsed=0:05:17.53    \nframe=  264 fps=0.8 q=33.7 size=    1024KiB time=00:00:04.36 bitrate=1921.1kbits/s speed=0.0137x elapsed=0:05:18.06    \nframe=  264 fps=0.8 q=33.7 size=    1024KiB time=00:00:04.36 bitrate=1921.1kbits/s speed=0.0137x elapsed=0:05:18.59    \nframe=  264 fps=0.8 q=33.7 size=    1024KiB time=00:00:04.36 bitrate=1921.1kbits/s speed=0.0137x elapsed=0:05:19.13    \nframe=  265 fps=0.8 q=34.0 size=    1024KiB time=00:00:04.38 bitrate=1913.8kbits/s speed=0.0137x elapsed=0:05:19.66    \nframe=  266 fps=0.8 q=29.0 size=    1024KiB time=00:00:04.40 bitrate=1906.6kbits/s speed=0.0137x elapsed=0:05:20.18    \nframe=  267 fps=0.8 q=32.1 size=    1024KiB time=00:00:04.41 bitrate=1899.4kbits/s speed=0.0138x elapsed=0:05:20.72    \nframe=  267 fps=0.8 q=32.1 size=    1024KiB time=00:00:04.41 bitrate=1899.4kbits/s speed=0.0137x elapsed=0:05:21.23    \nframe=  267 fps=0.8 q=32.1 size=    1024KiB time=00:00:04.41 bitrate=1899.4kbits/s speed=0.0137x elapsed=0:05:21.79    \nframe=  267 fps=0.8 q=32.1 size=    1024KiB time=00:00:04.41 bitrate=1899.4kbits/s speed=0.0137x elapsed=0:05:22.34    \nframe=  267 fps=0.8 q=32.1 size=    1024KiB time=00:00:04.41 bitrate=1899.4kbits/s speed=0.0137x elapsed=0:05:22.86    \nframe=  267 fps=0.8 q=32.1 size=    1024KiB time=00:00:04.41 bitrate=1899.4kbits/s speed=0.0137x elapsed=0:05:23.41    \nframe=  267 fps=0.8 q=32.1 size=    1024KiB time=00:00:04.41 bitrate=1899.4kbits/s speed=0.0136x elapsed=0:05:23.95    \nframe=  267 fps=0.8 q=32.1 size=    1024KiB time=00:00:04.41 bitrate=1899.4kbits/s speed=0.0136x elapsed=0:05:24.48    \nframe=  267 fps=0.8 q=32.1 size=    1024KiB time=00:00:04.41 bitrate=1899.4kbits/s speed=0.0136x elapsed=0:05:25.05    \nframe=  267 fps=0.8 q=32.1 size=    1024KiB time=00:00:04.41 bitrate=1899.4kbits/s speed=0.0136x elapsed=0:05:25.65    \nframe=  268 fps=0.8 q=34.2 size=    1024KiB time=00:00:04.43 bitrate=1892.2kbits/s speed=0.0136x elapsed=0:05:26.20    \nframe=  269 fps=0.8 q=34.3 size=    1024KiB time=00:00:04.45 bitrate=1885.2kbits/s speed=0.0136x elapsed=0:05:26.74    \nframe=  269 fps=0.8 q=34.3 size=    1024KiB time=00:00:04.45 bitrate=1885.2kbits/s speed=0.0136x elapsed=0:05:27.35    \nframe=  269 fps=0.8 q=34.3 size=    1024KiB time=00:00:04.45 bitrate=1885.2kbits/s speed=0.0136x elapsed=0:05:27.96    \nframe=  269 fps=0.8 q=34.3 size=    1024KiB time=00:00:04.45 bitrate=1885.2kbits/s speed=0.0135x elapsed=0:05:28.55    \nframe=  272 fps=0.8 q=33.9 size=    1024KiB time=00:00:04.50 bitrate=1864.2kbits/s speed=0.0137x elapsed=0:05:29.15    \nframe=  272 fps=0.8 q=33.9 size=    1024KiB time=00:00:04.50 bitrate=1864.2kbits/s speed=0.0136x elapsed=0:05:29.73    \nframe=  272 fps=0.8 q=33.9 size=    1024KiB time=00:00:04.50 bitrate=1864.2kbits/s speed=0.0136x elapsed=0:05:30.28    \nframe=  273 fps=0.8 q=33.8 size=    1024KiB time=00:00:04.51 bitrate=1857.3kbits/s speed=0.0137x elapsed=0:05:30.80    \nframe=  273 fps=0.8 q=33.8 size=    1024KiB time=00:00:04.51 bitrate=1857.3kbits/s speed=0.0136x elapsed=0:05:31.31    \nframe=  273 fps=0.8 q=33.8 size=    1024KiB time=00:00:04.51 bitrate=1857.3kbits/s speed=0.0136x elapsed=0:05:31.86    \nframe=  274 fps=0.8 q=33.9 size=    1024KiB time=00:00:04.53 bitrate=1850.5kbits/s speed=0.0136x elapsed=0:05:32.38    \nframe=  274 fps=0.8 q=33.9 size=    1024KiB time=00:00:04.53 bitrate=1850.5kbits/s speed=0.0136x elapsed=0:05:32.91    \nframe=  275 fps=0.8 q=28.5 size=    1024KiB time=00:00:04.55 bitrate=1843.7kbits/s speed=0.0136x elapsed=0:05:33.44    \nframe=  275 fps=0.8 q=28.5 size=    1024KiB time=00:00:04.55 bitrate=1843.7kbits/s speed=0.0136x elapsed=0:05:33.97    \nframe=  275 fps=0.8 q=28.5 size=    1024KiB time=00:00:04.55 bitrate=1843.7kbits/s speed=0.0136x elapsed=0:05:34.48    \nframe=  276 fps=0.8 q=32.4 size=    1024KiB time=00:00:04.56 bitrate=1837.0kbits/s speed=0.0136x elapsed=0:05:35.01    \nframe=  278 fps=0.8 q=34.2 size=    1024KiB time=00:00:04.60 bitrate=1823.7kbits/s speed=0.0137x elapsed=0:05:35.53    \nframe=  278 fps=0.8 q=34.2 size=    1024KiB time=00:00:04.60 bitrate=1823.7kbits/s speed=0.0137x elapsed=0:05:36.04    \nframe=  278 fps=0.8 q=34.2 size=    1024KiB time=00:00:04.60 bitrate=1823.7kbits/s speed=0.0137x elapsed=0:05:36.56    \nframe=  279 fps=0.8 q=28.9 size=    1024KiB time=00:00:04.61 bitrate=1817.1kbits/s speed=0.0137x elapsed=0:05:37.09    \nframe=  280 fps=0.8 q=31.6 size=    1024KiB time=00:00:04.63 bitrate=1810.6kbits/s speed=0.0137x elapsed=0:05:37.64    \nframe=  281 fps=0.8 q=33.5 size=    1024KiB time=00:00:04.65 bitrate=1804.1kbits/s speed=0.0137x elapsed=0:05:38.18    \nframe=  282 fps=0.8 q=33.9 size=    1024KiB time=00:00:04.66 bitrate=1797.6kbits/s speed=0.0138x elapsed=0:05:38.69    \nframe=  282 fps=0.8 q=33.9 size=    1024KiB time=00:00:04.66 bitrate=1797.6kbits/s speed=0.0138x elapsed=0:05:39.21    \nframe=  284 fps=0.8 q=28.4 size=    1024KiB time=00:00:04.70 bitrate=1784.9kbits/s speed=0.0138x elapsed=0:05:39.75    \nframe=  284 fps=0.8 q=28.4 size=    1024KiB time=00:00:04.70 bitrate=1784.9kbits/s speed=0.0138x elapsed=0:05:40.27    \nframe=  286 fps=0.8 q=33.8 size=    1024KiB time=00:00:04.73 bitrate=1772.3kbits/s speed=0.0139x elapsed=0:05:40.79    \nframe=  287 fps=0.8 q=34.1 size=    1024KiB time=00:00:04.75 bitrate=1766.1kbits/s speed=0.0139x elapsed=0:05:41.32    \nframe=  287 fps=0.8 q=34.1 size=    1024KiB time=00:00:04.75 bitrate=1766.1kbits/s speed=0.0139x elapsed=0:05:41.83    \nframe=  287 fps=0.8 q=34.1 size=    1024KiB time=00:00:04.75 bitrate=1766.1kbits/s speed=0.0139x elapsed=0:05:42.35    \nframe=  287 fps=0.8 q=34.1 size=    1024KiB time=00:00:04.75 bitrate=1766.1kbits/s speed=0.0139x elapsed=0:05:42.87    \nframe=  288 fps=0.8 q=28.5 size=    1024KiB time=00:00:04.76 bitrate=1759.9kbits/s speed=0.0139x elapsed=0:05:43.37    \nframe=  288 fps=0.8 q=28.5 size=    1024KiB time=00:00:04.76 bitrate=1759.9kbits/s speed=0.0139x elapsed=0:05:43.90    \nframe=  288 fps=0.8 q=28.5 size=    1024KiB time=00:00:04.76 bitrate=1759.9kbits/s speed=0.0138x elapsed=0:05:44.41    \nframe=  289 fps=0.8 q=32.0 size=    1024KiB time=00:00:04.78 bitrate=1753.8kbits/s speed=0.0139x elapsed=0:05:44.92    \nframe=  290 fps=0.8 q=33.7 size=    1024KiB time=00:00:04.80 bitrate=1747.7kbits/s speed=0.0139x elapsed=0:05:45.45    \nframe=  291 fps=0.8 q=34.0 size=    1024KiB time=00:00:04.81 bitrate=1741.7kbits/s speed=0.0139x elapsed=0:05:45.96    \nframe=  292 fps=0.8 q=33.7 size=    1024KiB time=00:00:04.83 bitrate=1735.6kbits/s speed=0.0139x elapsed=0:05:46.47    \nframe=  292 fps=0.8 q=33.7 size=    1024KiB time=00:00:04.83 bitrate=1735.6kbits/s speed=0.0139x elapsed=0:05:47.00    \nframe=  293 fps=0.8 q=29.1 size=    1024KiB time=00:00:04.85 bitrate=1729.7kbits/s speed=0.014x elapsed=0:05:47.53    \nframe=  293 fps=0.8 q=29.1 size=    1024KiB time=00:00:04.85 bitrate=1729.7kbits/s speed=0.0139x elapsed=0:05:48.04    \nframe=  294 fps=0.8 q=32.9 size=    1024KiB time=00:00:04.86 bitrate=1723.8kbits/s speed=0.014x elapsed=0:05:48.57    \nframe=  294 fps=0.8 q=32.9 size=    1024KiB time=00:00:04.86 bitrate=1723.8kbits/s speed=0.0139x elapsed=0:05:49.08    \nframe=  295 fps=0.8 q=34.6 size=    1024KiB time=00:00:04.88 bitrate=1717.9kbits/s speed=0.014x elapsed=0:05:49.61    \nframe=  295 fps=0.8 q=34.6 size=    1024KiB time=00:00:04.88 bitrate=1717.9kbits/s speed=0.0139x elapsed=0:05:50.13    \nframe=  296 fps=0.8 q=34.9 size=    1024KiB time=00:00:04.90 bitrate=1712.0kbits/s speed=0.014x elapsed=0:05:50.64    \nframe=  296 fps=0.8 q=34.9 size=    1024KiB time=00:00:04.90 bitrate=1712.0kbits/s speed=0.014x elapsed=0:05:51.17    \nframe=  296 fps=0.8 q=34.9 size=    1024KiB time=00:00:04.90 bitrate=1712.0kbits/s speed=0.0139x elapsed=0:05:51.69    \nframe=  297 fps=0.8 q=30.8 size=    1024KiB time=00:00:04.91 bitrate=1706.2kbits/s speed=0.014x elapsed=0:05:52.21    \nframe=  297 fps=0.8 q=30.8 size=    1024KiB time=00:00:04.91 bitrate=1706.2kbits/s speed=0.0139x elapsed=0:05:52.77    \n[mp4 @ 0000027d3d3f1200] Starting second pass: moving the moov atom to the beginning of the file\n[out#0/mp4 @ 0000027d3d3eabc0] video:1272KiB audio:0KiB subtitle:0KiB other streams:0KiB global headers:2KiB muxing overhead: 0.540667%\nframe=  300 fps=0.8 q=33.8 Lsize=    1279KiB time=00:00:04.96 bitrate=2109.3kbits/s speed=0.0141x elapsed=0:05:53.25    \nx265 [info]: frame I:      2, Avg QP:30.73  kb/s: 6670.32 \nx265 [info]: frame P:     67, Avg QP:28.00  kb/s: 4957.76 \nx265 [info]: frame B:    231, Avg QP:32.77  kb/s: 1208.21 \nx265 [info]: Weighted P-Frames: Y:0.0% UV:0.0%\n\nencoded 300 frames in 353.02s (0.85 fps), 2082.03 kb/s, Avg QP:31.69\n",
  "seconds": 353.6271393299103,
  "probe_out": {}
}